/* XPM */
static char * close24_xpm[] = {
"24 24 216 2",
"  	c None",
". 	c #00309C",
"+ 	c #00040D",
"@ 	c #09379F",
"# 	c #6A86C5",
"$ 	c #6986C5",
"% 	c #6885C5",
"& 	c #6785C5",
"* 	c #6684C5",
"= 	c #6584C5",
"- 	c #6483C5",
"; 	c #6382C5",
"> 	c #6282C5",
", 	c #597BC2",
"' 	c #58606E",
") 	c #1F2122",
"! 	c #1541A4",
"~ 	c #FEFEFF",
"{ 	c #FCFEFF",
"] 	c #F9FCFF",
"^ 	c #F7FBFF",
"/ 	c #F5FAFF",
"( 	c #F3F9FF",
"_ 	c #F2F8FF",
": 	c #F0F7FF",
"< 	c #EFF6FF",
"[ 	c #EDF5FF",
"} 	c #EBF5FF",
"| 	c #D6E3F7",
"1 	c #D2E2F7",
"2 	c #656B71",
"3 	c #26282B",
"4 	c #FCFDFF",
"5 	c #FAFDFF",
"6 	c #F1F8FF",
"7 	c #EEF6FF",
"8 	c #E9F4FF",
"9 	c #D4E3F7",
"0 	c #D1E1F7",
"a 	c #E2F0FF",
"b 	c #626970",
"c 	c #25282A",
"d 	c #FAFCFF",
"e 	c #F8FBFF",
"f 	c #ECF5FF",
"g 	c #EAF5FF",
"h 	c #E7F3FF",
"i 	c #D3E2F7",
"j 	c #CFE0F7",
"k 	c #E0EFFF",
"l 	c #DEEEFF",
"m 	c #626971",
"n 	c #1E2022",
"o 	c #133C97",
"p 	c #E3E6EA",
"q 	c #E2E5EA",
"r 	c #DFE4EA",
"s 	c #DDE4EA",
"t 	c #DCE3EA",
"u 	c #E5EEF6",
"v 	c #E8F4FF",
"w 	c #E6F2FF",
"x 	c #D1E1F6",
"y 	c #002C8F",
"z 	c #BCCCE2",
"A 	c #CCDAEA",
"B 	c #CAD9EA",
"C 	c #C9D9EA",
"D 	c #545A61",
"E 	c #000000",
"F 	c #898E94",
"G 	c #EAF4FE",
"H 	c #E6F3FF",
"I 	c #E5F2FF",
"J 	c #E4F1FF",
"K 	c #CFDCEA",
"L 	c #4E4E4E",
"M 	c #B4B4B4",
"N 	c #A8A8A8",
"O 	c #515252",
"P 	c #7D848A",
"Q 	c #E3F1FF",
"R 	c #DEEDFD",
"S 	c #CBDAEA",
"T 	c #C8D8EA",
"U 	c #C6D8EA",
"V 	c #C5D7EA",
"W 	c #525961",
"X 	c #3D3D3D",
"Y 	c #B3B3B3",
"Z 	c #F3F3F3",
"` 	c #E2E2E2",
" .	c #909090",
"..	c #B1B1B1",
"+.	c #7E7E7E",
"@.	c #4C4D4E",
"#.	c #757C83",
"$.	c #E1F0FF",
"%.	c #DFEFFF",
"&.	c #DCEDFF",
"*.	c #DBECFF",
"=.	c #D9EBFF",
"-.	c #D7EAFF",
";.	c #D5EAFF",
">.	c #58616A",
",.	c #2A2A2A",
"'.	c #999999",
").	c #FFFFFF",
"!.	c #FAFAFA",
"~.	c #D7D7D7",
"{.	c #666666",
"].	c #545454",
"^.	c #3F4042",
"/.	c #707880",
"(.	c #DDEEFF",
"_.	c #D3E9FF",
":.	c #191919",
"<.	c #969696",
"[.	c #C8C8C8",
"}.	c #3C3C3C",
"|.	c #303030",
"1.	c #2D2F30",
"2.	c #6F7780",
"3.	c #DBEDFF",
"4.	c #DAECFF",
"5.	c #D1E8FF",
"6.	c #57606A",
"7.	c #080808",
"8.	c #131313",
"9.	c #292929",
"0.	c #838383",
"a.	c #0D0D0D",
"b.	c #17191B",
"c.	c #707A83",
"d.	c #D8EBFF",
"e.	c #D0E7FF",
"f.	c #56606A",
"g.	c #202020",
"h.	c #959595",
"i.	c #1B1D20",
"j.	c #7D8995",
"k.	c #D6EAFF",
"l.	c #CEE6FF",
"m.	c #55606A",
"n.	c #232323",
"o.	c #8F8F8F",
"p.	c #F6F6F6",
"q.	c #1E2023",
"r.	c #79848F",
"s.	c #D4EAFF",
"t.	c #D2E9FF",
"u.	c #CCE5FF",
"v.	c #555F6A",
"w.	c #555555",
"x.	c #F1F1F1",
"y.	c #9C9C9C",
"z.	c #77828E",
"A.	c #D4E9FF",
"B.	c #D0E8FF",
"C.	c #CFE7FF",
"D.	c #CAE4FF",
"E.	c #545F6A",
"F.	c #404040",
"G.	c #BFBFBF",
"H.	c #9F9F9F",
"I.	c #D6E9FF",
"J.	c #D2E8FF",
"K.	c #CDE6FF",
"L.	c #C8E3FF",
"M.	c #535E6A",
"N.	c #151719",
"O.	c #7D8895",
"P.	c #CFE6FF",
"Q.	c #CBE5FF",
"R.	c #C6E2FF",
"S.	c #525E6A",
"T.	c #000102",
"U.	c #02050E",
"V.	c #131415",
"W.	c #121415",
"X.	c #84919E",
"Y.	c #D5E9FF",
"Z.	c #CDE5FF",
"`.	c #CBE4FF",
" +	c #C9E4FF",
".+	c #C7E3FF",
"++	c #C5E1FF",
"@+	c #1340A4",
"#+	c #C9E3FF",
"$+	c #C7E2FF",
"%+	c #C5E2FF",
"&+	c #C4E1FF",
"*+	c #C3E0FF",
"=+	c #515D6A",
"-+	c #1240A4",
";+	c #C4E0FF",
">+	c #C2E0FF",
",+	c #C1DFFF",
"'+	c #505D6A",
")+	c #D7EBFF",
"!+	c #C2DFFF",
"~+	c #C0DFFF",
"{+	c #BFDEFF",
"]+	c #4F5D6A",
"^+	c #C0DEFF",
"/+	c #BEDEFF",
"(+	c #BCDDFF",
"_+	c #4E5C6A",
":+	c #BADCFF",
"<+	c #4D5B6A",
"[+	c #071A44",
"}+	c #5A626A",
"|+	c #59626A",
"1+	c #57616A",
"2+	c #4F5C6A",
"3+	c #20262C",
"          . . . . . . . . . . . . . . +         ",
"          @ # $ % & * * = - - ; > , . ' )       ",
"          ! ~ { ] ^ / ( _ : < [ } | . 1 2 3     ",
"          ! 4 5 ^ / ( 6 : 7 [ } 8 9 . 0 a b c   ",
"          ! d e / ( 6 : 7 f g 8 h i . j k l m n ",
"          o p q r s t u f g v h w x y z A B C D ",
"E E E E E E E E E E E F G v H I J K E E E E E E ",
"E L M N N N N N N N N O P H I Q a R S B T U V W ",
"E X Y Z `  . . .` Z ..+.@.#.Q $.%.l &.*.=.-.;.>.",
"E ,.'.).!.~.{.~.!.).'.{.].^./.%.(.&.*.=.-.;._.>.",
"E :.L <.).!.[.!.).<.L }.}.|.1.2.3.4.=.-.;._.5.6.",
"E 7.8.9.0.).).).0.9.8.8.8.8.a.b.c.d.-.;._.5.e.f.",
"E E E g.h.).).).h.g.E E E E E i.j.k.;._.5.e.l.m.",
"E E n.o.).p.h.p.).o.n.E E E q.r.k.s.t.5.e.l.u.v.",
"E E w.).x.y.E y.x.).w.E E q.z.k.A.t.B.C.l.u.D.E.",
"E E F.G.H.E E E H.G.F.E i.r.I.A.J.e.C.K.u.D.L.M.",
"E E E E E E E E E E E N.O.I.A.J.e.P.K.Q.D.L.R.S.",
"E E E E T.U.V.V.W.W.W.X.Y._.J.e.P.Z.`. +.+R.++S.",
"          @+%.l *.=.-.Y._.J.e.P.Z.`.#+$+%+&+*+=+",
"          -+(.3.=.-.Y._.5.C.l.Z.`.#+$+++;+>+,+'+",
"          -+3.4.)+Y._.5.C.l.u.`.#+$+++;+!+~+{+]+",
"          -+4.d.;._.5.C.l.u.D.L.$+++;+!+^+/+(+_+",
"          -+d.k._.5.C.l.u.D.L.R.++;+!+^+/+(+:+<+",
"          [+}+|+1+6.f.m.v.E.M.S.S.=+'+'+2+_+<+3+"};
