/* XPM */
static char * close16_xpm[] = {
"16 16 147 2",
"  	c None",
". 	c #1945A6",
"+ 	c #4568B7",
"@ 	c #4468B7",
"# 	c #4367B7",
"$ 	c #4267B7",
"% 	c #4266B7",
"& 	c #4166B7",
"* 	c #4066B7",
"= 	c #2952AD",
"- 	c #283B65",
"; 	c #5C7BC0",
"> 	c #FCFEFF",
", 	c #F8FBFF",
"' 	c #F5FAFF",
") 	c #F2F9FF",
"! 	c #F0F7FF",
"~ 	c #EEF6FF",
"{ 	c #EBF5FF",
"] 	c #94ACDB",
"^ 	c #92ABDB",
"/ 	c #788088",
"( 	c #5B7AC0",
"_ 	c #F9FCFF",
": 	c #EDF6FF",
"< 	c #E8F3FF",
"[ 	c #92ACDB",
"} 	c #90AADB",
"| 	c #D9E7F7",
"1 	c #767E88",
"2 	c #394E7A",
"3 	c #9D9FA2",
"4 	c #9B9EA2",
"5 	c #999EA2",
"6 	c #D5DDE5",
"7 	c #EAF4FF",
"8 	c #E5F2FF",
"9 	c #91A4C6",
"0 	c #5B6C8B",
"a 	c #8D97A2",
"b 	c #8C97A2",
"c 	c #26292C",
"d 	c #232323",
"e 	c #7A7A7A",
"f 	c #747474",
"g 	c #5E6063",
"h 	c #E7F3FF",
"i 	c #E3F0FF",
"j 	c #C2CFDD",
"k 	c #8B96A2",
"l 	c #8995A2",
"m 	c #25292C",
"n 	c #242424",
"o 	c #C4C4C4",
"p 	c #F1F1F1",
"q 	c #979797",
"r 	c #C3C3C3",
"s 	c #787878",
"t 	c #4E5256",
"u 	c #CFDDEA",
"v 	c #DFEFFF",
"w 	c #DDEEFF",
"x 	c #DBECFF",
"y 	c #D8EBFF",
"z 	c #D5E9FF",
"A 	c #3A4046",
"B 	c #131313",
"C 	c #777777",
"D 	c #EEEEEE",
"E 	c #DEDEDE",
"F 	c #464646",
"G 	c #383838",
"H 	c #4C5055",
"I 	c #CADAEA",
"J 	c #DAECFF",
"K 	c #D2E8FF",
"L 	c #393F46",
"M 	c #030303",
"N 	c #0C0C0C",
"O 	c #4C4C4C",
"P 	c #FFFFFF",
"Q 	c #060606",
"R 	c #3F444A",
"S 	c #D7EBFF",
"T 	c #D5EAFF",
"U 	c #D0E7FF",
"V 	c #383F46",
"W 	c #000000",
"X 	c #262626",
"Y 	c #DDDDDD",
"Z 	c #E6E6E6",
"` 	c #202326",
" .	c #BACCDD",
"..	c #D4E9FF",
"+.	c #CFE7FF",
"@.	c #CDE5FF",
"#.	c #373E46",
"$.	c #8B8B8B",
"%.	c #F2F2F2",
"&.	c #4A4A4A",
"*.	c #AAB9CA",
"=.	c #D1E8FF",
"-.	c #CAE4FF",
";.	c #191919",
">.	c #2A2A2A",
",.	c #0E0F11",
"'.	c #BACBDD",
").	c #D1E7FF",
"!.	c #CEE6FF",
"~.	c #CCE5FF",
"{.	c #C7E3FF",
"].	c #363E46",
"^.	c #000208",
"/.	c #1D2B46",
"(.	c #51575D",
"_.	c #4F565D",
":.	c #4E555D",
"<.	c #B0C1D3",
"[.	c #D3E8FF",
"}.	c #CCE4FF",
"|.	c #C9E3FF",
"1.	c #C6E3FF",
"2.	c #C4E1FF",
"3.	c #353D46",
"4.	c #5175C0",
"5.	c #D9EBFF",
"6.	c #D6EAFF",
"7.	c #D3E9FF",
"8.	c #C6E2FF",
"9.	c #C1E0FF",
"0.	c #5075C0",
"a.	c #CDE6FF",
"b.	c #CBE4FF",
"c.	c #C4E0FF",
"d.	c #C1DFFF",
"e.	c #BEDEFF",
"f.	c #343C46",
"g.	c #4F74C0",
"h.	c #C8E3FF",
"i.	c #C3E0FF",
"j.	c #BEDDFF",
"k.	c #BBDCFF",
"l.	c #333C46",
"m.	c #152034",
"n.	c #363D46",
"o.	c #343D46",
"p.	c #0E1013",
"      . + @ # $ % & * = -       ",
"      ; > , ' ) ! ~ { ] ^ /     ",
"      ( _ ' ) ! : { < [ } | 1   ",
"      2 3 4 5 6 7 < 8 9 0 a b c ",
"d e f f f f f g h 8 i j b k l m ",
"n o p q q p r s t u v w x y z A ",
"B C D E E D C F G H I J y z K L ",
"M N O P P O N N N Q R S T K U V ",
"W X Y Z Z Y X W W `  ...K +.@.#.",
"W $.%.&.&.%.$.W ` *...=.+.@.-.#.",
"W ;.>.W W >.;.,.'...).!.~.-.{.].",
"W W ^./.(._.:.<.[.).!.}.|.1.2.3.",
"      4.w 5.6.7.U !.}.|.8.2.9.3.",
"      0.J 6.[.U a.b.|.8.c.d.e.f.",
"      g.S 7.U !.b.h.8.i.d.j.k.l.",
"      m.A L V V #.].n.3.o.l.l.p."};
