/* XPM */
static char * debug24_xpm[] = {
"24 24 116 2",
"  	c None",
". 	c #3F1010",
"+ 	c #FD3F40",
"@ 	c #FE3F40",
"# 	c #FF3F40",
"$ 	c #FF0B0B",
"% 	c #00B414",
"& 	c #1BC32D",
"* 	c #39D74B",
"= 	c #3E3E3F",
"- 	c #F8FAFC",
"; 	c #FAFBFC",
"> 	c #FDFDFC",
", 	c #FF2A2A",
"' 	c #006D09",
") 	c #6AAA70",
"! 	c #B8F1BF",
"~ 	c #28D43C",
"{ 	c #3E3E3B",
"] 	c #F9F7EA",
"^ 	c #FE2927",
"/ 	c #006708",
"( 	c #6AA66F",
"_ 	c #FFFFFF",
": 	c #C5F3CA",
"< 	c #15D02A",
"[ 	c #002801",
"} 	c #6A826B",
"| 	c #D5F7D8",
"1 	c #00CC17",
"2 	c #3E3D35",
"3 	c #F9F4D6",
"4 	c #FE2924",
"5 	c #FBFEFC",
"6 	c #D8F7DB",
"7 	c #F9F4D4",
"8 	c #FE2923",
"9 	c #D4F6D8",
"0 	c #3F3D31",
"a 	c #FBF5C3",
"b 	c #FE2920",
"c 	c #3F3D2F",
"d 	c #FCF5BD",
"e 	c #FF2920",
"f 	c #001500",
"g 	c #6A7669",
"h 	c #FFFCFB",
"i 	c #B8EEBB",
"j 	c #39D649",
"k 	c #3E3D2B",
"l 	c #F9F2AC",
"m 	c #FE281D",
"n 	c #000C00",
"o 	c #6A6D64",
"p 	c #FFF5EF",
"q 	c #AFE6A8",
"r 	c #45D64F",
"s 	c #3E3C28",
"t 	c #F7F0A0",
"u 	c #FE281B",
"v 	c #000D17",
"w 	c #6A6A6A",
"x 	c #FFECDF",
"y 	c #559352",
"z 	c #3D3B22",
"A 	c #F5EE89",
"B 	c #FD2817",
"C 	c #000C28",
"D 	c #6A656B",
"E 	c #FFE2CA",
"F 	c #AF9D90",
"G 	c #453E3A",
"H 	c #3D3B1A",
"I 	c #F2EB68",
"J 	c #FD2711",
"K 	c #00071A",
"L 	c #6A5D58",
"M 	c #FFD5AF",
"N 	c #B89D84",
"O 	c #393029",
"P 	c #00030B",
"Q 	c #6A5644",
"R 	c #FFC994",
"S 	c #C59C75",
"T 	c #282018",
"U 	c #323116",
"V 	c #CAC457",
"W 	c #D3210E",
"X 	c #000000",
"Y 	c #6A5237",
"Z 	c #FFC484",
"` 	c #FBC283",
" .	c #D5A572",
"..	c #15100B",
"+.	c #6A4E2D",
"@.	c #FFBC6B",
"#.	c #FBB96A",
"$.	c #D89F5B",
"%.	c #D59D59",
"&.	c #400000",
"*.	c #FF0000",
"=.	c #6A3F04",
"-.	c #FF9709",
";.	c #C57509",
">.	c #150F09",
",.	c #3F341D",
"'.	c #FACF72",
").	c #FE2213",
"!.	c #6A3E00",
"~.	c #B86B00",
"{.	c #281700",
"].	c #101009",
"^.	c #3E3E22",
"/.	c #400A06",
"(.	c #1B0F00",
"_.	c #392100",
"                                                ",
"                                                ",
"                                                ",
"      . + @ # # $       % & *                   ",
"      = - ; > > ,       ' ) ! ~                 ",
"      { ] ] ] ] ^       / ( _ : <               ",
"      { ] ] ] ] ^       [ } _ _ | 1             ",
"      2 3 3 3 3 4       [ } _ _ 5 6 1           ",
"      2 7 7 7 7 8       [ } _ _ _ 5 9 <         ",
"      0 a a a a b       [ } _ _ _ _ _ : ~       ",
"      c d d d d e       f g h h h h h h i j     ",
"      k l l l l m       n o p p p p p p p q r   ",
"      s t t t t u       v w x x x x x x x x y   ",
"      z A A A A B       C D E E E E E E E F G   ",
"      H I I I I J       K L M M M M M M N O     ",
"      H I I I I J       P Q R R R R R S T       ",
"      U V V V V W       X Y Z Z Z `  ...        ",
"      X X X X X X       X +.@.@.#.$.X           ",
"                        X +.@.@.%.X             ",
"      &.*.*.*.*.*.      X =.-.;.>.              ",
"      ,.'.'.'.'.).      X !.~.{.                ",
"      ].^.^.^.^./.      X (._.                  ",
"                                                ",
"                                                "};
