/* XPM */
static char * debug16_xpm[] = {
"16 16 71 1",
" 	c None",
".	c #D10000",
"+	c #FF0000",
"@	c #00CC17",
"#	c #000000",
"$	c #CCA7A9",
"%	c #FCCECF",
"&	c #FECFCF",
"*	c #FF1717",
"=	c #399F42",
"-	c #77E484",
";	c #CCCABF",
">	c #F9F7EA",
",	c #FE1B1A",
"'	c #46834A",
")	c #FFFFFF",
"!	c #79E485",
"~	c #CCC9B4",
"{	c #F9F5DC",
"]	c #FE1B18",
"^	c #466346",
"/	c #F7FDF7",
"(	c #77E483",
"_	c #CCC8AA",
":	c #FAF4D0",
"<	c #FE1B17",
"[	c #CEC89B",
"}	c #FCF5BD",
"|	c #FF1B15",
"1	c #465945",
"2	c #FFFDFC",
"3	c #77E281",
"4	c #CBC589",
"5	c #F8F1A8",
"6	c #FE1B13",
"7	c #464B41",
"8	c #FFF4ED",
"9	c #F2F1E1",
"0	c #73DD76",
"a	c #C9C376",
"b	c #F6EF91",
"c	c #FE1B10",
"d	c #464757",
"e	c #FFE3CE",
"f	c #F2D9C5",
"g	c #736961",
"h	c #C6C055",
"i	c #F2EB68",
"j	c #FE1A0C",
"k	c #463E3E",
"l	c #FFD1A7",
"m	c #776555",
"n	c #B4AF4D",
"o	c #DCD65F",
"p	c #E7180B",
"q	c #463627",
"r	c #FFC689",
"s	c #F7C085",
"t	c #795F44",
"u	c #46331D",
"v	c #FFBC6B",
"w	c #F7B667",
"x	c #775832",
"y	c #462C0B",
"z	c #FFA327",
"A	c #795426",
"B	c #A79452",
"C	c #CCB464",
"D	c #D0140B",
"E	c #392100",
"F	c #774500",
"                ",
"  .++   @       ",
" #$%&*  =-      ",
" #;>>,  ')!     ",
" #~{{]  ^)/(    ",
" #_::<  ^))/!   ",
" #[}}|  122223  ",
" #4556  7888890 ",
" #abbc  deeeefg ",
" #hiij  kllllm  ",
" #noop  qrrst   ",
"  ####  uvwx    ",
"  .+++  yzA     ",
" #BCCD  EF      ",
"  ###   #       ",
"                "};
