/* XPM */
static char * drpython_xpm[] = {
"32 32 178 2",
"  	c None",
". 	c #FF0000",
"+ 	c #2D00D1",
"@ 	c #2F00CF",
"# 	c #3000CE",
"$ 	c #3300CC",
"% 	c #0000FF",
"& 	c #0B00F3",
"* 	c #1E00E0",
"= 	c #E00000",
"- 	c #202020",
"; 	c #000000",
"> 	c #EE0000",
", 	c #2900D5",
"' 	c #3800C6",
") 	c #CE0000",
"! 	c #503838",
"~ 	c #FFFFFF",
"{ 	c #B7B7B7",
"] 	c #BE0000",
"^ 	c #0000BF",
"/ 	c #1500E9",
"( 	c #3600C8",
"_ 	c #C20000",
": 	c #280000",
"< 	c #DFDFDF",
"[ 	c #9F9F9F",
"} 	c #808080",
"| 	c #0000AB",
"1 	c #3200CC",
"2 	c #CB0000",
"3 	c #7F0000",
"4 	c #001700",
"5 	c #CFCFCF",
"6 	c #00009F",
"7 	c #D30000",
"8 	c #00A100",
"9 	c #008600",
"0 	c #EBEBEB",
"a 	c #000040",
"b 	c #3C00C2",
"c 	c #00BB00",
"d 	c #009200",
"e 	c #282828",
"f 	c #D7D7D7",
"g 	c #BFBFBF",
"h 	c #F7F7F7",
"i 	c #4D00B1",
"j 	c #E20000",
"k 	c #182800",
"l 	c #00AC00",
"m 	c #00A400",
"n 	c #1C301C",
"o 	c #007B08",
"p 	c #000074",
"q 	c #2C00D2",
"r 	c #005500",
"s 	c #007500",
"t 	c #000080",
"u 	c #4C00B2",
"v 	c #001760",
"w 	c #0000E7",
"x 	c #3500C9",
"y 	c #D60000",
"z 	c #005E00",
"A 	c #1F00DF",
"B 	c #5F009F",
"C 	c #008C00",
"D 	c #F60000",
"E 	c #FFFF00",
"F 	c #BD0000",
"G 	c #9E0000",
"H 	c #641A00",
"I 	c #009E00",
"J 	c #009800",
"K 	c #002B3C",
"L 	c #0000D7",
"M 	c #000060",
"N 	c #4700B7",
"O 	c #F80000",
"P 	c #FA0000",
"Q 	c #E60000",
"R 	c #302200",
"S 	c #002F00",
"T 	c #004600",
"U 	c #000058",
"V 	c #005718",
"W 	c #3E00C0",
"X 	c #E90000",
"Y 	c #0000DF",
"Z 	c #002C00",
"` 	c #0000E3",
" .	c #004000",
"..	c #00B200",
"+.	c #005110",
"@.	c #3900C5",
"#.	c #FB0000",
"$.	c #F30000",
"%.	c #F00000",
"&.	c #1B1B1C",
"*.	c #E3F800",
"=.	c #18C100",
"-.	c #0002C3",
";.	c #006900",
">.	c #0000F7",
",.	c #400000",
"'.	c #DFDF00",
").	c #BFEE00",
"!.	c #0000CF",
"~.	c #003428",
"{.	c #4300BB",
"].	c #EBEB00",
"^.	c #D7F400",
"/.	c #3CCB00",
"(.	c #007200",
"_.	c #0000F3",
":.	c #DE0000",
"<.	c #002300",
"[.	c #BFBF00",
"}.	c #9FE600",
"|.	c #000020",
"1.	c #002E40",
"2.	c #0A00D4",
"3.	c #5A00A4",
"4.	c #EA0000",
"5.	c #481D00",
"6.	c #1C00C0",
"7.	c #680096",
"8.	c #381100",
"9.	c #3500A6",
"0.	c #3C0000",
"a.	c #00A700",
"b.	c #C7F000",
"c.	c #14C000",
"d.	c #000004",
"e.	c #4C008A",
"f.	c #1C1400",
"g.	c #105100",
"h.	c #200000",
"i.	c #AFA700",
"j.	c #FBFB00",
"k.	c #FBFE00",
"l.	c #A7E800",
"m.	c #620062",
"n.	c #0E2416",
"o.	c #008F00",
"p.	c #502300",
"q.	c #283400",
"r.	c #8BD200",
"s.	c #000E54",
"t.	c #112C24",
"u.	c #005D00",
"v.	c #000B70",
"w.	c #0000EF",
"x.	c #00007F",
"y.	c #050079",
"z.	c #1F005B",
"A.	c #560056",
"B.	c #B60000",
"C.	c #001178",
"D.	c #0C00F3",
"E.	c #4100BD",
"F.	c #7C0082",
"G.	c #C60000",
"H.	c #001D48",
"I.	c #1800E6",
"J.	c #5600A8",
"K.	c #8A0074",
"L.	c #A60500",
"M.	c #0000EB",
"N.	c #3A00C4",
"O.	c #71008D",
"P.	c #2400DA",
"Q.	c #4500B9",
"R.	c #6B0093",
"S.	c #4400BA",
"T.	c #4F00AF",
"U.	c #81007D",
"                              . + @ # $                         ",
"                    . . . . . . % % % & * + $                   ",
"                . = - - ; > . . % % % % % % & , '               ",
"              . ) ! ~ ~ { ; ] ] ^ % % % % % % % / (             ",
"          . . _ : < [ { ~ } ; ; ; | % % % % % % % & 1           ",
"        . 2 3 ; 4 < ; ; 5 } 5 ~ ~ ; 6 % % % % % % % & 1         ",
"        7 ; ; 8 9 ; ~ ~ [ } ; ; 0 < a % % % % % % % % & b       ",
"      . ] ; c c c d ; ; e } f g h < a % % % % % % % % % / i     ",
"    . j k l c c c c m m m ; ; ~ ~ n o p % % % % % % % % % q     ",
"    . j k l c c c c c c c c r 4 4 c c s t % % % % % % % % & u   ",
"  . . . ] ; c c c c c c c c c c c c c 9 v w % % % % % % % % x   ",
"  . . . y ; s 8 c c c c 8 ; c c c c c c z 6 % % % % % % % % A B ",
"  . . . . ) ; ; ; ; ; ; ; C c c c c c c z 6 % % % % % % % % & u ",
". . . . . D E F G G G G H ; ; I c c c c J K L % M M ; % % % % N ",
". . . . O E P . . . . . Q ] ] R S c c c c T ^ U C C V ; % % % W ",
". . . . E X . . . . . . . . . Q Y Z c c c T ^ ` 4  ...+.; % % @.",
". . . #.E $.%.. . . . . . . . Q &.*.=.c c c  .-.% ^ T ;.; >.% @.",
". . . E . E . . . . . . . . . ,.'.E ).c c c c 4 % !.~.m ; ^ % {.",
". . . . . . . . . . . . . ) G ; ].E ^./.c c c r | % 6 z (.; _.N ",
". . . . . . . . . . . :.3 ; <.[.E E E }.c c c c |.% !.1.J ; 2.3.",
"  . . . . . . . . . 4.5.; J T [.E E E }.c c c c |.% % t s ; 6.7.",
"  . . . . . . . . . 8.J c c T [.E E E }.c c c c |.% % t s ; 9.  ",
"  . . . . . . . . 0.a.c c c T [.E E b.c.c c c c d.U % t s ; e.  ",
"    . . . . . . Q f.c c ..g.h.i.j.k.l.c c c c c 4 d 4 ;.c ; m.  ",
"    . . . . . . ,.m c c s 3 . ,.'.l.c c c c c d 4 c c c I n.    ",
"      . . . . . ,.m c c o.p.G q.r.c c c c c c 4 s.s s s t.      ",
"        . . . . ,.m c c c C u.m c c c c c c s v.w.x.y.z.A.      ",
"          . . . B.; c c c c c c c c c o.; ; C._.% D.E.F.        ",
"            . . . G.S ; c c c c c S S H.^ ^ w.% I.J.K.          ",
"              . . . :.L.4 4 4 4 4 Y Y M.% % D.N.O.              ",
"                  . . . . . . . % % % D.P.Q.R.K.                ",
"                      . . . . . S.T.3.R.U.                      "};
