/* XPM */
static char * find_xpm[] = {
"16 16 142 2",
"  	c None",
". 	c #295AB5",
"+ 	c #3A68BD",
"@ 	c #3968BD",
"# 	c #1D75D5",
"$ 	c #147EDE",
"% 	c #168BE5",
"& 	c #1587DE",
"* 	c #1483D6",
"= 	c #127FCE",
"- 	c #117BC6",
"; 	c #668ED0",
"> 	c #92B3E5",
", 	c #C9E3FF",
"' 	c #C6E2FF",
") 	c #C3E0FF",
"! 	c #83A9E1",
"~ 	c #6B92D3",
"{ 	c #B9CAE8",
"] 	c #F2F8FF",
"^ 	c #EFF7FF",
"/ 	c #0C6EAB",
"( 	c #EBF4FF",
"_ 	c #0D71B3",
": 	c #6A93D4",
"< 	c #CBE2FC",
"[ 	c #D2E8FF",
"} 	c #D1E7FF",
"| 	c #CEE6FF",
"1 	c #CAE4FF",
"2 	c #C6E1FF",
"3 	c #B6D6FA",
"4 	c #6089CF",
"5 	c #CBDAF1",
"6 	c #ECF5FF",
"7 	c #0B6AA4",
"8 	c #E7F2FF",
"9 	c #E5F1FF",
"0 	c #0A68A0",
"a 	c #3376CE",
"b 	c #9DBEEA",
"c 	c #DAECFF",
"d 	c #DBECFF",
"e 	c #D9EBFF",
"f 	c #D6EAFF",
"g 	c #CCE5FF",
"h 	c #C5E1FF",
"i 	c #80A6DF",
"j 	c #0E4E87",
"k 	c #E9F3FF",
"l 	c #0A679E",
"m 	c #086396",
"n 	c #075F8E",
"o 	c #086294",
"p 	c #498EDE",
"q 	c #DFEEFF",
"r 	c #E2F0FF",
"s 	c #E1EFFF",
"t 	c #DDEDFF",
"u 	c #D7EAFF",
"v 	c #3C69BC",
"w 	c #E3F0FF",
"x 	c #DEEEFF",
"y 	c #065C88",
"z 	c #4D9AE9",
"A 	c #E6F1FF",
"B 	c #EAF4FF",
"C 	c #CDE5FF",
"D 	c #285AAE",
"E 	c #004B66",
"F 	c #04567D",
"G 	c #51A7F4",
"H 	c #EBF5FF",
"I 	c #F3F8FF",
"J 	c #E8F3FF",
"K 	c #E0EFFF",
"L 	c #D0E7FF",
"M 	c #C8E3FF",
"N 	c #DCEDFF",
"O 	c #DAEBFF",
"P 	c #025071",
"Q 	c #A9D5FD",
"R 	c #F6FAFF",
"S 	c #FAFCFF",
"T 	c #7DA1DB",
"U 	c #0B4D82",
"V 	c #D4E8FF",
"W 	c #7BC2FE",
"X 	c #F5F9FF",
"Y 	c #F1F7FF",
"Z 	c #D9ECFF",
"` 	c #C2DBF9",
" .	c #6481AB",
"..	c #B2B5AD",
"+.	c #CDD2D3",
"@.	c #D5E9FF",
"#.	c #D3E8FF",
"$.	c #72BFFE",
"%.	c #A5D5FE",
"&.	c #E4F1FF",
"*.	c #89B5EA",
"=.	c #6A8FB7",
"-.	c #B19B24",
";.	c #DCAE00",
">.	c #A48410",
",.	c #1F5051",
"'.	c #43A7FB",
").	c #3A97E9",
"!.	c #4B9BEA",
"~.	c #97C2F1",
"{.	c #BAC0B1",
"].	c #E8C600",
"^.	c #FFE300",
"/.	c #F8CD00",
"(.	c #C5991E",
"_.	c #C6D2DB",
":.	c #CAE3FF",
"<.	c #055A84",
"[.	c #D3DBD3",
"}.	c #BCAC10",
"|.	c #FCEB00",
"1.	c #FFD500",
"2.	c #C4981E",
"3.	c #BEC8CC",
"4.	c #035479",
"5.	c #D6E9FF",
"6.	c #CED6CC",
"7.	c #DEC21E",
"8.	c #FFF100",
"9.	c #F8CE00",
"0.	c #C49E2A",
"a.	c #1A4F54",
"b.	c #014E6D",
"c.	c #1D5657",
"d.	c #C6B00C",
"e.	c #FBD200",
"f.	c #A97E06",
"g.	c #DEBC00",
"h.	c #FDED00",
"i.	c #B78500",
"j.	c #C9A000",
"k.	c #BB8D00",
"      . + @ @ # $ % & * = -     ",
"    ; > , ' ) ! ~ { ] ^ / ( _   ",
"  : < [ } | 1 2 3 4 5 6 7 8 9 0 ",
"a b c d e f } g h i j k l m n o ",
"p q r r s t u } 1 ) v 9 w s x y ",
"z A B ( k w t f C 2 D E E E d F ",
"G H ] I ^ J K e L M v q N O u P ",
"  Q R S I B r c } T U E E E V E ",
"  W k X Y k s Z `  ...+.@.#.} E ",
"    $.%.( &.x *.=.-.;.>.,.E C E ",
"        '.).!.~.{.].^./.(._.:.E ",
"          <.e u [.}.|.^.1.2.3.E ",
"          4.5.V } 6.7.8.^.9.0.a.",
"          b.E E E E c.d.|.^.e.f.",
"                        g.h.^.i.",
"                          j.k.  "};
