/* XPM */
static char * find24_xpm[] = {
"24 24 110 2",
"  	c None",
". 	c #00309C",
"+ 	c #FFFFFF",
"@ 	c #FDFEFF",
"# 	c #FAFCFF",
"$ 	c #000000",
"% 	c #04192A",
"& 	c #031625",
"* 	c #03121F",
"= 	c #020E18",
"- 	c #010910",
"; 	c #FEFEFF",
"> 	c #FBFDFF",
", 	c #F8FBFF",
"' 	c #F6FAFF",
") 	c #CDCAFF",
"! 	c #062641",
"~ 	c #06253E",
"{ 	c #C6E2FF",
"] 	c #C5E1FF",
"^ 	c #C3E0FF",
"/ 	c #C1DFFF",
"( 	c #BEDEFF",
"_ 	c #020C15",
": 	c #01060B",
"< 	c #F7FBFF",
"[ 	c #F4F9FF",
"} 	c #F2F8FF",
"| 	c #ECF5FF",
"1 	c #083152",
"2 	c #CCE5FF",
"3 	c #CBE4FF",
"4 	c #C9E3FF",
"5 	c #C7E2FF",
"6 	c #C4E1FF",
"7 	c #C0DFFF",
"8 	c #BCDDFF",
"9 	c #01070C",
"0 	c #F3F9FF",
"a 	c #F0F7FF",
"b 	c #EDF6FF",
"c 	c #E8F3FF",
"d 	c #E5F2FF",
"e 	c #0A3B62",
"f 	c #D1E7FF",
"g 	c #D2E8FF",
"h 	c #D3E8FF",
"i 	c #CFE6FF",
"j 	c #74728B",
"k 	c #E9F4FF",
"l 	c #0B4573",
"m 	c #D7EAFF",
"n 	c #D8EBFF",
"o 	c #D9EBFF",
"p 	c #D4E9FF",
"q 	c #CEE6FF",
"r 	c #EBF5FF",
"s 	c #E2F0FF",
"t 	c #E0EFFF",
"u 	c #DDEDFF",
"v 	c #0D4D81",
"w 	c #DAECFF",
"x 	c #DCEDFF",
"y 	c #DEEEFF",
"z 	c #DFEEFF",
"A 	c #D6EAFF",
"B 	c #E4F1FF",
"C 	c #E1F0FF",
"D 	c #DBEDFF",
"E 	c #0E5691",
"F 	c #E5F1FF",
"G 	c #DBECFF",
"H 	c #808080",
"I 	c #1060A1",
"J 	c #E3F0FF",
"K 	c #E7F2FF",
"L 	c #EAF4FF",
"M 	c #EBF4FF",
"N 	c #D3E9FF",
"O 	c #D0E7FF",
"P 	c #1269B0",
"Q 	c #F1F7FF",
"R 	c #1372BF",
"S 	c #F5F9FF",
"T 	c #F7FAFF",
"U 	c #C8E3FF",
"V 	c #1680D6",
"W 	c #1788E4",
"X 	c #CBE5FF",
"Y 	c #1997FD",
"Z 	c #865300",
"` 	c #824F00",
" .	c #7E4C00",
"..	c #8F5900",
"+.	c #FFE300",
"@.	c #FFD800",
"#.	c #FFCE00",
"$.	c #BDDEFF",
"%.	c #BBDCFF",
"&.	c #B8DBFF",
"*.	c #CDE5FE",
"=.	c #CAE4FF",
"-.	c #935D00",
";.	c #FFEE00",
">.	c #B6DAFF",
",.	c #B4D9FF",
"'.	c #976000",
").	c #FFF800",
"!.	c #AFD7FF",
"~.	c #FED300",
"            . . . . . . . . . . . .             ",
"            . + + + + + + + + @ # . $           ",
"          % & * = - + + + ; > , ' . ) $         ",
"      ! ~ { ] ^ / ( _ : @ # < [ } . | ) $       ",
"    1 2 2 2 3 4 5 6 7 8 9 ' 0 a b . c d ) $     ",
"  e f g h g f i 2 4 ] / 8 : j | k $ $ $ $ $     ",
"  l m n o n m p f q 4 ] 7 _ r c d s t u ) $     ",
"v w x y z y x w A g q 4 6 ( - B C y D o ) $     ",
"E z s B F B s z G A f 2 5 / = H H H H p ) $     ",
"I J K L M L K J z w p i 4 ^ * x o A N O ) $     ",
"P K | a Q a | K s x m f 3 ] & H H H H 2 ) $     ",
"R L a S T S a L B y n g 2 { % p f q 3 U ) $     ",
"  V Q T ; T Q M F z o h 2 ~ H H H H H 6 ) $     ",
"  W a S T S a L B y n g 2 ! q X U { ^ 7 ) $     ",
"    Y a Q a | K s x m f 1 Z `  .H H H 8 ) $     ",
"      W V L K J z w l e ..+.@.#. .$.%.&.) $     ",
"          R P I E v *.=.-.;.+.@.#. .>.,.) $     ",
"            . g i 2 4 { '.).;.+.@.#. .!.) $     ",
"            . ) ) ) ) ) ) '.).;.+.@.#. .) $     ",
"            $ $ $ $ $ $ $ $ '.).;.+.@.~. .$     ",
"                              '.).;.+.@.~. .    ",
"                                '.).;.+.@.`     ",
"                                  '.).;.+.Z     ",
"                                    '.-...      "};
