/* XPM */
static char * new_xpm[] = {
"16 16 117 2",
"  	c None",
". 	c #6E6F9F",
"+ 	c #797AA6",
"@ 	c #7879A6",
"# 	c #7475A4",
"$ 	c #69699A",
"% 	c #686898",
"& 	c #9A9BBC",
"* 	c #FEFFFF",
"= 	c #FDFEFF",
"- 	c #FBFDFF",
"; 	c #F9FCFF",
"> 	c #F7FBFF",
", 	c #F5FAFF",
"' 	c #D4D9E9",
") 	c #9598BC",
"! 	c #BBC0D7",
"~ 	c #7373A0",
"{ 	c #999ABC",
"] 	c #FAFCFF",
"^ 	c #F8FBFF",
"/ 	c #F6FAFF",
"( 	c #F4F9FF",
"_ 	c #F2F8FF",
": 	c #D2D8E9",
"< 	c #9498BC",
"[ 	c #ECF5FF",
"} 	c #B3BAD4",
"| 	c #7476A3",
"1 	c #989ABC",
"2 	c #F8FCFF",
"3 	c #F3F9FF",
"4 	c #F1F8FF",
"5 	c #EFF6FF",
"6 	c #CED5E7",
"7 	c #7A7BA7",
"8 	c #AAAFCC",
"9 	c #A6ADCC",
"0 	c #7274A1",
"a 	c #9799BC",
"b 	c #F5F9FF",
"c 	c #EFF7FF",
"d 	c #EDF5FF",
"e 	c #DCE5F4",
"f 	c #A8AECC",
"g 	c #A7ADCC",
"h 	c #A0A6CC",
"i 	c #6F70A1",
"j 	c #9699BC",
"k 	c #F3F8FF",
"l 	c #F0F7FF",
"m 	c #EEF6FF",
"n 	c #EAF4FF",
"o 	c #E8F3FF",
"p 	c #E6F2FF",
"q 	c #E4F1FF",
"r 	c #D8E3FF",
"s 	c #8083B2",
"t 	c #EDF6FF",
"u 	c #EBF4FF",
"v 	c #E9F3FF",
"w 	c #E7F2FF",
"x 	c #E5F1FF",
"y 	c #E3F0FF",
"z 	c #E1F0FF",
"A 	c #D6E3FF",
"B 	c #ECF6FF",
"C 	c #E2F0FF",
"D 	c #E0EFFF",
"E 	c #DEEEFF",
"F 	c #D5E2FF",
"G 	c #9397BC",
"H 	c #E5F2FF",
"I 	c #E3F1FF",
"J 	c #DFEFFF",
"K 	c #DDEEFF",
"L 	c #DBECFF",
"M 	c #D4E1FF",
"N 	c #9297BC",
"O 	c #E7F3FF",
"P 	c #E1EFFF",
"Q 	c #DCEDFF",
"R 	c #DAECFF",
"S 	c #D8EBFF",
"T 	c #D3E1FF",
"U 	c #9196BC",
"V 	c #DBEDFF",
"W 	c #DAEBFF",
"X 	c #D7EAFF",
"Y 	c #D5EAFF",
"Z 	c #D1E0FF",
"` 	c #DFEEFF",
" .	c #DDEDFF",
"..	c #D5E9FF",
"+.	c #D3E8FF",
"@.	c #D0DFFF",
"#.	c #9095BC",
"$.	c #D6EAFF",
"%.	c #D4E9FF",
"&.	c #D2E8FF",
"*.	c #D0E7FF",
"=.	c #CFDFFF",
"-.	c #8F95BC",
";.	c #D9EBFF",
">.	c #D1E8FF",
",.	c #CFE7FF",
"'.	c #8B90BC",
").	c #D2DEFF",
"!.	c #D2DDFF",
"~.	c #D1DDFF",
"{.	c #D0DDFF",
"].	c #D0DCFF",
"^.	c #CFDCFF",
"/.	c #CFDAFF",
"(.	c #5E5E91",
"_.	c #666699",
":.	c #5D5D90",
"    . + + @ @ @ @ # $ %         ",
"    & * = - ; > , ' ) ! ~       ",
"    { - ] ^ / ( _ : < [ } |     ",
"    1 2 > , 3 4 5 6 7 8 9 0     ",
"    a , b 3 4 c d e f g h i     ",
"    j k _ l m [ n o p q r s     ",
"    ) l c t u v w x y z A s     ",
"    < t B n o p q C D E F s     ",
"    G n v w H I z J K L M s     ",
"    N O p q y P E Q R S T s     ",
"    U q q C D E V W X Y Z s     ",
"    U C P `  .V S X ..+.@.s     ",
"    #.` E Q R S $.%.&.*.=.s     ",
"    -.E  .L ;.X ..+.>.,.=.s     ",
"    '.).).!.~.~.{.].^.^./.s     ",
"    (._._._._._._._._._._.:.    "};
