/* XPM */
static char * new24_xpm[] = {
"24 24 146 2",
"  	c None",
". 	c #355BB1",
"+ 	c #96AAD6",
"@ 	c #95A9D6",
"# 	c #94A9D6",
"$ 	c #93A9D6",
"% 	c #92A8D6",
"& 	c #91A8D6",
"* 	c #90A7D6",
"= 	c #8FA7D6",
"- 	c #8EA6D6",
"; 	c #8DA6D6",
"> 	c #2A53AC",
", 	c #7F86A9",
"' 	c #5A79BF",
") 	c #FFFFFF",
"! 	c #FCFEFF",
"~ 	c #FAFDFF",
"{ 	c #F8FCFF",
"] 	c #F6FBFF",
"^ 	c #F5FBFF",
"/ 	c #F3FAFF",
"( 	c #F1F9FF",
"_ 	c #EFF9FF",
": 	c #EDF8FF",
"< 	c #456BB9",
"[ 	c #E1EEF9",
"} 	c #838BAD",
"| 	c #5979BF",
"1 	c #FDFEFF",
"2 	c #F9FCFF",
"3 	c #F4FAFF",
"4 	c #F2FAFF",
"5 	c #EBF7FF",
"6 	c #456AB9",
"7 	c #E7F5FF",
"8 	c #E5F5FF",
"9 	c #7D86A9",
"0 	c #5978BF",
"a 	c #FBFDFF",
"b 	c #F7FCFF",
"c 	c #F0F9FF",
"d 	c #EEF8FF",
"e 	c #E9F6FF",
"f 	c #4469B9",
"g 	c #DAE9F6",
"h 	c #D9E8F6",
"i 	c #CDDDEE",
"j 	c #7479A0",
"k 	c #5878BF",
"l 	c #F1FAFF",
"m 	c #ECF7FF",
"n 	c #EAF7FF",
"o 	c #E8F6FF",
"p 	c #7593CC",
"q 	c #74779F",
"r 	c #73779F",
"s 	c #72779F",
"t 	c #444174",
"u 	c #5778BF",
"v 	c #EFF8FF",
"w 	c #EAF6FF",
"x 	c #E6F5FF",
"y 	c #E5F4FF",
"z 	c #E2F4FF",
"A 	c #E0F3FF",
"B 	c #DEF2FF",
"C 	c #DCF1FF",
"D 	c #DAF1FF",
"E 	c #585887",
"F 	c #5678BF",
"G 	c #E7F6FF",
"H 	c #E4F4FF",
"I 	c #E2F3FF",
"J 	c #DFF2FF",
"K 	c #DDF2FF",
"L 	c #DBF1FF",
"M 	c #DAF0FF",
"N 	c #D8EFFF",
"O 	c #575887",
"P 	c #5577BF",
"Q 	c #ECF8FF",
"R 	c #D9F0FF",
"S 	c #D6EFFF",
"T 	c #E3F4FF",
"U 	c #E1F3FF",
"V 	c #D7EFFF",
"W 	c #D5EFFF",
"X 	c #D4EEFF",
"Y 	c #565887",
"Z 	c #5477BF",
"` 	c #D5EEFF",
" .	c #D3EEFF",
"..	c #D1EDFF",
"+.	c #565787",
"@.	c #5376BF",
"#.	c #CFECFF",
"$.	c #5276BF",
"%.	c #E0F2FF",
"&.	c #D2EDFF",
"*.	c #D0EDFF",
"=.	c #CEECFF",
"-.	c #CDEBFF",
";.	c #555787",
">.	c #5176BF",
",.	c #D8F0FF",
"'.	c #D0ECFF",
").	c #CBEAFF",
"!.	c #5175BF",
"~.	c #CCEBFF",
"{.	c #CAEAFF",
"].	c #C8E9FF",
"^.	c #545787",
"/.	c #5075BF",
"(.	c #D7F0FF",
"_.	c #C6E9FF",
":.	c #4F75BF",
"<.	c #CCEAFF",
"[.	c #C9EAFF",
"}.	c #C6E8FF",
"|.	c #C4E8FF",
"1.	c #535687",
"2.	c #4E74BF",
"3.	c #CDECFF",
"4.	c #C7E9FF",
"5.	c #C5E8FF",
"6.	c #C3E8FF",
"7.	c #C1E7FF",
"8.	c #CBEBFF",
"9.	c #BFE6FF",
"0.	c #4D74BF",
"a.	c #C2E7FF",
"b.	c #C0E7FF",
"c.	c #BDE5FF",
"d.	c #525687",
"e.	c #4B73BF",
"f.	c #C8EAFF",
"g.	c #C3E7FF",
"h.	c #BEE6FF",
"i.	c #BBE4FF",
"j.	c #B9E4FF",
"k.	c #515687",
"l.	c #3C407B",
"m.	c #545687",
"n.	c #515587",
"o.	c #3E3A6F",
"                                                ",
"          . + @ # $ % & * = - ; > ,             ",
"          ' ) ! ~ { ] ^ / ( _ : < [ }           ",
"          | 1 2 { ] 3 4 ( _ : 5 6 7 8 9         ",
"          0 a b ] 3 4 c d : 5 e f g h i j       ",
"          k { ^ / l c d m n o 7 p q q r s t     ",
"          u ] / ( v : m w o x y z A B C D E     ",
"          F / c v : 5 e G x H I J K L M N O     ",
"          P ( d Q 5 e G 8 H I A K L R N S O     ",
"          P v m n o 7 y T U A B L R V W X Y     ",
"          Z : n o x H T U J K L R V `  ...+.    ",
"          @.5 o x H z U J K L R V X  ...#.+.    ",
"          $.o 8 T I %.B C D R V X &.*.=.-.;.    ",
"          >.x T U %.B C M ,.V ` &.'.=.-.).;.    ",
"          !.H U J K L M ,.S X &.'.=.~.{.].^.    ",
"          /.I B K L R (.S X &.*.=.~.{.]._.^.    ",
"          :.%.C L R V `  .&.'.=.<.[.].}.|.1.    ",
"          2.K D ,.S `  ...#.3.~.[.4.5.6.7.1.    ",
"          2.L N S X &...#.3.8.{.4.5.6.7.9.1.    ",
"          0.,.W X &.'.=.~.).[.4.|.a.b.9.c.d.    ",
"          e.` &.'.=.~.).f.4.5.g.7.h.c.i.j.k.    ",
"          l.+.+.;.;.;.^.^.m.1.1.1.d.d.k.n.o.    ",
"                                                ",
"                                                "};
