/* XPM */
static char * open_xpm[] = {
"16 16 110 2",
"  	c None",
". 	c #000000",
"+ 	c #B6841D",
"@ 	c #E5C255",
"# 	c #DEC851",
"$ 	c #DAC173",
"% 	c #BC9043",
"& 	c #A67210",
"* 	c #E5BF74",
"= 	c #FDE899",
"- 	c #F8F792",
"; 	c #F9F8A6",
"> 	c #E9DCAE",
", 	c #B68733",
"' 	c #BA8900",
") 	c #BD8D00",
"! 	c #C49200",
"~ 	c #CD9900",
"{ 	c #C89200",
"] 	c #A77311",
"^ 	c #FFE19C",
"/ 	c #FEE99B",
"( 	c #FDF19A",
"_ 	c #FDF39A",
": 	c #FEF6AA",
"< 	c #EFDD86",
"[ 	c #F0E479",
"} 	c #F0E679",
"| 	c #F2E779",
"1 	c #F4E879",
"2 	c #D9B228",
"3 	c #FFE69C",
"4 	c #FFEC9C",
"5 	c #F4DC76",
"6 	c #DBB229",
"7 	c #D3A311",
"8 	c #D3A411",
"9 	c #CF9D06",
"0 	c #C79000",
"a 	c #A77411",
"b 	c #FFEB9C",
"c 	c #FDED96",
"d 	c #E8CA55",
"e 	c #EBD383",
"f 	c #FFF9DE",
"g 	c #FFF8DE",
"h 	c #FFF7DE",
"i 	c #FFF6DE",
"j 	c #FFF5DE",
"k 	c #FFF4DE",
"l 	c #F6E9D0",
"m 	c #A77519",
"n 	c #FFEF9C",
"o 	c #EED568",
"p 	c #E3C145",
"q 	c #FFF29C",
"r 	c #FFF19C",
"s 	c #FFEA9C",
"t 	c #FFE99C",
"u 	c #FFE79C",
"v 	c #FFE49C",
"w 	c #FFE29C",
"x 	c #FFE3A7",
"y 	c #B28126",
"z 	c #A77511",
"A 	c #FBEC90",
"B 	c #E9CD57",
"C 	c #ECD362",
"D 	c #FFF49C",
"E 	c #FFF09C",
"F 	c #FFEE9C",
"G 	c #FFE89C",
"H 	c #FFE59C",
"I 	c #FFE39C",
"J 	c #E9CF9A",
"K 	c #B0822E",
"L 	c #F4E279",
"M 	c #DEB834",
"N 	c #FFF69C",
"O 	c #FFF59C",
"P 	c #FFF39C",
"Q 	c #FFED9C",
"R 	c #FFE9AE",
"S 	c #BD923F",
"T 	c #A47008",
"U 	c #E4C649",
"V 	c #F0DD6E",
"W 	c #FFF89C",
"X 	c #E0C27E",
"Y 	c #B38736",
"Z 	c #A57109",
"` 	c #F2DC59",
" .	c #FFF582",
"..	c #FFF382",
"+.	c #FFF282",
"@.	c #FFF082",
"#.	c #FFEF82",
"$.	c #FFED83",
"%.	c #FFEB81",
"&.	c #FFE982",
"*.	c #FFE782",
"=.	c #FFEBA4",
"-.	c #C8A35B",
";.	c #9E6903",
">.	c #B2851A",
",.	c #B2841A",
"'.	c #B2831A",
").	c #B2821A",
"!.	c #B28325",
"~.	c #AD7E28",
"            . . . .             ",
"          . .   . . . . .       ",
"                    . . .       ",
"                    . . .       ",
"  + @ # $ %                     ",
"& * = - ; > , ' ) ) ) ! ~ {     ",
"] ^ / ( _ : < [ } } } | 1 2     ",
"] 3 4 5 6 7 7 8 8 8 8 8 8 9 ~ 0 ",
"a b c d e f f g h i i j j k l m ",
"a n o p q r n 4 s t u v w x y   ",
"z A B C D q E F b s G H I J K   ",
"z L M N O P r n Q b t u R S     ",
"T U V W N D q E F 4 s G X Y     ",
"Z `  ...+.@.#.$.%.&.*.=.-.      ",
";.>.,.,.,.,.'.'.).).).!.~.      ",
"                                "};
