/* XPM */
static char * open24_xpm[] = {
"24 24 37 1",
" 	c None",
".	c #000000",
"+	c #D59D00",
"@	c #9C6500",
"#	c #FFFD9C",
"$	c #FFFC9C",
"%	c #FFFB9C",
"&	c #FFF99C",
"*	c #FFFA9C",
"=	c #FFF89C",
"-	c #FFF79C",
";	c #FFF69C",
">	c #FFF59C",
",	c #FFF49C",
"'	c #FFF39C",
")	c #FFF29C",
"!	c #FFF09C",
"~	c #FFEF9C",
"{	c #FFEE9C",
"]	c #FFED9C",
"^	c #FFEC9C",
"/	c #FFEB9C",
"(	c #EAC64E",
"_	c #FFFFFF",
":	c #FFF19C",
"<	c #FFEA9C",
"[	c #FFE89C",
"}	c #FFE59C",
"|	c #FFE49C",
"1	c #CF9700",
"2	c #FFE99C",
"3	c #FFE69C",
"4	c #FFE79C",
"5	c #C99100",
"6	c #FFFF9C",
"7	c #FFFE9C",
"8	c #C38C00",
"                        ",
"          .....         ",
"        ......... .     ",
"       ..      ....     ",
"      .         ...     ",
"               ....     ",
"   ++++                 ",
"  @#$%&+                ",
" @$%*&=-+++++++++       ",
" @%*&-;>,')!~{]^/+      ",
" @&=-;+++++++++++++++++ ",
" @=;>(+_______________+ ",
" @;>,+=;':~^<[}||||||_+ ",
" @,'(1&-,)!]/23||||||+  ",
" @')1$*=>':{^<4}||||_+  ",
" @:(5#%=;,:~]<[3||||+   ",
" @!567$&->)!{/24|||_+   ",
" @(866#*=;':~^<[}||+.   ",
" @86667%&-,)!]/23|_+    ",
" @66666$*=>':{^<4}+     ",
" @66666#%=;,:~]<[_+     ",
" @@@@@@@@@@@@@@@@@      ",
"                        ",
"                        "};
