/* XPM */
static char * prefs24_xpm[] = {
"24 24 109 2",
"  	c None",
". 	c #000000",
"+ 	c #7C7C7C",
"@ 	c #727272",
"# 	c #6B6B6C",
"$ 	c #666667",
"% 	c #565657",
"& 	c #6C6C6C",
"* 	c #EEEEEE",
"= 	c #E5E5E5",
"- 	c #D5D5D6",
"; 	c #C4C4C7",
"> 	c #0F3E24",
", 	c #4A4A4A",
"' 	c #919192",
") 	c #BFBFC0",
"! 	c #8D8D8D",
"~ 	c #575758",
"{ 	c #323232",
"] 	c #73BC73",
"^ 	c #7D7D7E",
"/ 	c #99999A",
"( 	c #838384",
"_ 	c #59595A",
": 	c #67B267",
"< 	c #4F9853",
"[ 	c #E6E6E7",
"} 	c #CCCCCD",
"| 	c #B5AEA2",
"1 	c #978970",
"2 	c #685B42",
"3 	c #80C580",
"4 	c #085212",
"5 	c #79797A",
"6 	c #BDBDC0",
"7 	c #C8AD7A",
"8 	c #9C6500",
"9 	c #442C00",
"0 	c #CDFFCD",
"a 	c #338C33",
"b 	c #0A4B18",
"c 	c #006500",
"d 	c #269F26",
"e 	c #1A8C1A",
"f 	c #888889",
"g 	c #ADADAE",
"h 	c #BB9C63",
"i 	c #C39E3C",
"j 	c #D1AD33",
"k 	c #8A620F",
"l 	c #89D489",
"m 	c #3C8F3F",
"n 	c #0D6A13",
"o 	c #139F13",
"p 	c #068206",
"q 	c #878787",
"r 	c #8F8F90",
"s 	c #9B9B9C",
"t 	c #9C9C9C",
"u 	c #9C7327",
"v 	c #C49F31",
"w 	c #E9D258",
"x 	c #E0BF3B",
"y 	c #C4981D",
"z 	c #B3F2B3",
"A 	c #8CDF8C",
"B 	c #4DB24D",
"C 	c #1A921A",
"D 	c #1AA51A",
"E 	c #17882B",
"F 	c #0B7219",
"G 	c #DADADA",
"H 	c #BBBBBC",
"I 	c #939394",
"J 	c #6C6C6D",
"K 	c #E0C858",
"L 	c #DFBF3B",
"M 	c #69C560",
"N 	c #40B940",
"O 	c #1DA31D",
"P 	c #008B00",
"Q 	c #ABABAB",
"R 	c #A1A1A1",
"S 	c #4C4C4D",
"T 	c #F2E575",
"U 	c #CA9F1D",
"V 	c #004700",
"W 	c #89898A",
"X 	c #5F5F5F",
"Y 	c #DDBC3B",
"Z 	c #002E00",
"` 	c #DABF4E",
" .	c #66CC66",
"..	c #73CC73",
"+.	c #1A881A",
"@.	c #6C4D0B",
"#.	c #40B240",
"$.	c #855600",
"%.	c #1E8F1E",
"&.	c #8E5C00",
"*.	c #BC8F18",
"=.	c #8D5B00",
"-.	c #93690F",
";.	c #392500",
">.	c #005A00",
",.	c #004F00",
"'.	c #003100",
").	c #7B5000",
"!.	c #4B3100",
"                    . + . .                     ",
"                  . @ # $ % .                   ",
"                . & * = - ; .   > > >           ",
"              . , ' ) ! ~ {   > > ] >           ",
"            . # ^ / ( _ .     > : < >           ",
"          . [ } | 1 2 .     > 3 < 4 > > > >     ",
"        . 5 6 [ 7 8 8 9 > > 0 a b > c d e >     ",
"      . f g - h i j k 8 k > 0 l m n d o p >     ",
"    . q r s t u v w x y 8 k z A B C D E F >     ",
"  . G H I J   8 k K w L y 8 k M N O P > > >     ",
"  . Q G R S .   k 8 T w x U 8 k D P > > V       ",
"  . + W X .       k 8 K w Y U 8 k > > Z         ",
"    . . .         > k 8 ` w x y 8 k             ",
"                > > A k 8 K w L y 8 k           ",
"              > > A  .N k 8 T w x U 8 k         ",
"            > > .. .N +.> @.8 K w Y U 8 k       ",
"          > > .. .#.e > >   $.8 ` w x y 8 k     ",
"        c > A  .#.%.> >       &.8 K w L *.8     ",
"        c >  .N e > >           =.8 T w 8 =.    ",
"          > > > > >               -.8 8 8 ;.    ",
"            >.,.'.                  =.).!.      ",
"                                                ",
"                                                ",
"                                                "};
