/* XPM */
static char * prefs16_xpm[] = {
"16 16 113 2",
"  	c None",
". 	c #5B5B5C",
"+ 	c #545455",
"@ 	c #49494A",
"# 	c #141414",
"$ 	c #4B4B4C",
"% 	c #C1C1C1",
"& 	c #C7C7C7",
"* 	c #9A9A9C",
"= 	c #717672",
"- 	c #0F3C0F",
"; 	c #197819",
"> 	c #005800",
", 	c #797979",
"' 	c #5C5C5C",
") 	c #7D7D7D",
"! 	c #949495",
"~ 	c #575758",
"{ 	c #010501",
"] 	c #5BA95B",
"^ 	c #4F9653",
"/ 	c #044B0A",
"( 	c #D5D5D6",
"_ 	c #B2A284",
": 	c #80673B",
"< 	c #36332D",
"[ 	c #0E520E",
"} 	c #60AD60",
"| 	c #0A4B18",
"1 	c #126B18",
"2 	c #087008",
"3 	c #454546",
"4 	c #7A7A7B",
"5 	c #ACACAD",
"6 	c #C8B799",
"7 	c #C4A041",
"8 	c #BF931A",
"9 	c #7F5503",
"0 	c #177617",
"a 	c #B2EDB2",
"b 	c #3C8D40",
"c 	c #199B19",
"d 	c #087A08",
"e 	c #4D4D4E",
"f 	c #A8A8A8",
"g 	c #8E8E8F",
"h 	c #8C8C8D",
"i 	c #92743C",
"j 	c #D3B545",
"k 	c #E4C94A",
"l 	c #C89D1E",
"m 	c #6F7413",
"n 	c #9FE89F",
"o 	c #5BC05B",
"p 	c #1A9C1A",
"q 	c #18892C",
"r 	c #0A6A16",
"s 	c #002C00",
"t 	c #474748",
"u 	c #C0C0C0",
"v 	c #B1B1B1",
"w 	c #4C4C4D",
"x 	c #382F1F",
"y 	c #966E14",
"z 	c #E1CB5A",
"A 	c #C69D1F",
"B 	c #878E28",
"C 	c #2DAF2D",
"D 	c #068A06",
"E 	c #066A0C",
"F 	c #05450A",
"G 	c #333333",
"H 	c #6B6B6C",
"I 	c #090909",
"J 	c #9E6E0C",
"K 	c #E8D666",
"L 	c #E3C645",
"M 	c #C49C1C",
"N 	c #606D04",
"O 	c #005300",
"P 	c #151516",
"Q 	c #2F2F30",
"R 	c #0F6C0F",
"S 	c #76CA76",
"T 	c #917B15",
"U 	c #825703",
"V 	c #196C19",
"W 	c #6AC06A",
"X 	c #66CC66",
"Y 	c #2DA52D",
"Z 	c #95680B",
"` 	c #C69B1E",
" .	c #996906",
"..	c #237F23",
"+.	c #62BA62",
"@.	c #2DA22D",
"#.	c #055C05",
"$.	c #A37716",
"%.	c #DCC352",
"&.	c #C4991E",
"*.	c #9B6B07",
"=.	c #3A993A",
"-.	c #2DA02D",
";.	c #085E08",
">.	c #AB811D",
",.	c #DABF4E",
"'.	c #B28313",
").	c #1C7F1C",
"!.	c #218C21",
"~.	c #0A5F0A",
"{.	c #AC8320",
"].	c #BF982A",
"^.	c #8A640F",
"            . + @ #             ",
"          $ % & * = - ; >       ",
"      , ' ) ! ~ { - ] ^ /       ",
"      ! ( _ : < [ } ^ | 1 2     ",
"  3 4 5 6 7 8 9 0 a b 1 c d     ",
"e f g h i j k l m n o p q r s   ",
"t u v w x y z k A B C D E F     ",
"  G H I     J K L M N O         ",
"    P Q   R S T K k l U         ",
"        V W X Y Z z k `  .      ",
"      ..+.X @.#.  $.%.k &.*.    ",
"      =.X -.;.      >.,.k '.    ",
"      ).!.~.          {.].^.    ",
"                                ",
"                                ",
"                                "};
