/* XPM */
static char * prompt_xpm[] = {
"16 16 131 2",
"  	c None",
". 	c #595789",
"+ 	c #73719F",
"@ 	c #72709F",
"# 	c #71709F",
"$ 	c #70709F",
"% 	c #EAE8FF",
"& 	c #EDECFF",
"* 	c #ECEBFF",
"= 	c #EAEAFF",
"- 	c #E8E9FF",
"; 	c #E6E9FF",
"> 	c #E5E8FF",
", 	c #E3E7FF",
"' 	c #E2E6FF",
") 	c #DFE5FF",
"! 	c #DDE4FF",
"~ 	c #DBE0FF",
"{ 	c #706F9F",
"] 	c #F8FBFF",
"^ 	c #F6FAFF",
"/ 	c #F2F8FF",
"( 	c #F0F7FF",
"_ 	c #EDF6FF",
": 	c #EBF4FF",
"< 	c #E9F3FF",
"[ 	c #E6F2FF",
"} 	c #E3F1FF",
"| 	c #E0EFFF",
"1 	c #DAE3FF",
"2 	c #EBEBFF",
"3 	c #F5F9FF",
"4 	c #F3F8FF",
"5 	c #EFF7FF",
"6 	c #ECF5FF",
"7 	c #EAF4FF",
"8 	c #E8F3FF",
"9 	c #E5F2FF",
"0 	c #DCEDFF",
"a 	c #D8E1FF",
"b 	c #6F6F9F",
"c 	c #E9EAFF",
"d 	c #E9F4FF",
"e 	c #E7F2FF",
"f 	c #E4F1FF",
"g 	c #E2F0FF",
"h 	c #DCDCC6",
"i 	c #D6CEA1",
"j 	c #D9EBFF",
"k 	c #D6E0FF",
"l 	c #E5F1FF",
"m 	c #DDE0D3",
"n 	c #DDC026",
"o 	c #E4CD19",
"p 	c #D3CEA7",
"q 	c #D5DFFF",
"r 	c #6E6C9F",
"s 	c #D0CDFF",
"t 	c #D1CFFF",
"u 	c #D0CFFF",
"v 	c #D0CEFF",
"w 	c #D0A836",
"x 	c #CFA736",
"y 	c #CFC2C6",
"z 	c #DEBA00",
"A 	c #E9D000",
"B 	c #CDB68E",
"C 	c #B19068",
"D 	c #976612",
"E 	c #565486",
"F 	c #626191",
"G 	c #636291",
"H 	c #626291",
"I 	c #B79436",
"J 	c #F5EB03",
"K 	c #FAF500",
"L 	c #DCB700",
"M 	c #FFF800",
"N 	c #FFF200",
"O 	c #E6C400",
"P 	c #F0CF00",
"Q 	c #F6D800",
"R 	c #A77300",
"S 	c #E3F0FF",
"T 	c #D2B34F",
"U 	c #F5E900",
"V 	c #FFF700",
"W 	c #FFED00",
"X 	c #FFE600",
"Y 	c #F0D000",
"Z 	c #A07717",
"` 	c #E1E6FF",
" .	c #DDEDFF",
"..	c #DAECFF",
"+.	c #D3A300",
"@.	c #FFF000",
"#.	c #FFE900",
"$.	c #FFDF00",
"%.	c #BD8D00",
"&.	c #625566",
"*.	c #D3CA9A",
"=.	c #E6C200",
"-.	c #FFE400",
";.	c #FFD900",
">.	c #DAAA00",
",.	c #866639",
"'.	c #DDEEFF",
").	c #BEB191",
"!.	c #E3C20D",
"~.	c #F9E000",
"{.	c #D4AD00",
"].	c #FFDD00",
"^.	c #FFD700",
"/.	c #E0B200",
"(.	c #EDBC00",
"_.	c #DDAA00",
":.	c #A67000",
"<.	c #D8E2FF",
"[.	c #C6BDBD",
"}.	c #BD9513",
"|.	c #B98B00",
"1.	c #A36E00",
"2.	c #D3A400",
"3.	c #E2B200",
"4.	c #AB7500",
"5.	c #B27C00",
"6.	c #BD8800",
"7.	c #64586C",
"8.	c #6F584F",
"9.	c #D3A000",
"0.	c #7C5C39",
"                                ",
"  . + + + + @ @ @ @ # # # $ .   ",
"  + % & * = - ; > , ' ) ! ~ {   ",
"  + & ] ^ / ( _ : < [ } | 1 {   ",
"  + 2 3 4 5 6 7 8 9 } | 0 a b   ",
"  + c / ( 6 d e f g h i j k b   ",
"  @ - ( _ 7 e l g m n o p q b   ",
"  r s t t u v w x y z A B C D   ",
"  E F G G H I J K L M N O P Q R ",
"  @ , < [ S | T U V N W X Y Z   ",
"  # ` [ f |  ...+.@.W #.$.%.&.  ",
"  # ) g | 0 j *.=.#.-.$.;.>.,.  ",
"  # ! | '.j ).!.~.{.].^./.(._.:.",
"  $ ~ 1 <.k [.}.|.1.2.3.4.5.6.  ",
"  . { { b b b 7.&.8.6.9.0.&.&.  ",
"                      :.        "};
