/* XPM */
static char * prompt24_xpm[] = {
"24 24 115 2",
"  	c None",
". 	c #002F9C",
"+ 	c #002D97",
"@ 	c #002984",
"# 	c #00226B",
"$ 	c #FEFEFF",
"% 	c #FAFCFF",
"& 	c #F6FAFF",
"* 	c #F2F8FF",
"= 	c #EDF5FF",
"- 	c #E9F3FF",
"; 	c #E5F1FF",
"> 	c #E0EFFF",
", 	c #DCEDFF",
"' 	c #D8EBFF",
") 	c #D3E8FF",
"! 	c #CFE6FF",
"~ 	c #001B53",
"{ 	c #F5F9FF",
"] 	c #F1F7FF",
"^ 	c #E8F3FF",
"/ 	c #E4F1FF",
"( 	c #DBECFF",
"_ 	c #D7EAFF",
": 	c #CEE6FF",
"< 	c #CAE4FF",
"[ 	c #00143B",
"} 	c #F9FBFF",
"| 	c #F0F7FF",
"1 	c #ECF5FF",
"2 	c #E3F0FF",
"3 	c #DFEEFF",
"4 	c #D6EAFF",
"5 	c #D2E8FF",
"6 	c #C9E3FF",
"7 	c #C5E1FF",
"8 	c #000D23",
"9 	c #FDFDFF",
"0 	c #F4F9FF",
"a 	c #E7F2FF",
"b 	c #DAECFF",
"c 	c #CDE5FF",
"d 	c #C0DFFF",
"e 	c #00060B",
"f 	c #FCFDFF",
"g 	c #F8FBFF",
"h 	c #EFF6FF",
"i 	c #EBF4FF",
"j 	c #E2F0FF",
"k 	c #DEEEFF",
"l 	c #D5E9FF",
"m 	c #D1E7FF",
"n 	c #C8E3FF",
"o 	c #C4E1FF",
"p 	c #BBDCFF",
"q 	c #F7FAFF",
"r 	c #F3F8FF",
"s 	c #EAF4FF",
"t 	c #E6F2FF",
"u 	c #DDEDFF",
"v 	c #D9EBFF",
"w 	c #D0E7FF",
"x 	c #CCE5FF",
"y 	c #C3E0FF",
"z 	c #BFDEFF",
"A 	c #B7DAFF",
"B 	c #EEF6FF",
"C 	c #E1EFFF",
"D 	c #D4E9FF",
"E 	c #CBE4FF",
"F 	c #C7E2FF",
"G 	c #BEDEFF",
"H 	c #BADCFF",
"I 	c #C6E2FF",
"J 	c #C2E0FF",
"K 	c #B9DBFF",
"L 	c #CD9900",
"M 	c #C1DFFF",
"N 	c #BCDDFF",
"O 	c #B8DBFF",
"P 	c #FFFF00",
"Q 	c #FFFB00",
"R 	c #9C6500",
"S 	c #FFFA00",
"T 	c #FFF500",
"U 	c #FFF000",
"V 	c #FFE700",
"W 	c #FFE200",
"X 	c #FFFD00",
"Y 	c #FFF900",
"Z 	c #FFF400",
"` 	c #FFEF00",
" .	c #FFEA00",
"..	c #FFE500",
"+.	c #FFE100",
"@.	c #FFF300",
"#.	c #FFEE00",
"$.	c #FFE400",
"%.	c #FFDF00",
"&.	c #FFED00",
"*.	c #FFE800",
"=.	c #FFDE00",
"-.	c #FFD900",
";.	c #BDDDFF",
">.	c #FFEB00",
",.	c #FFDD00",
"'.	c #FFD800",
").	c #FFD300",
"!.	c #FFCF00",
"~.	c #FFDC00",
"{.	c #FFD700",
"].	c #FFD200",
"^.	c #FFCE00",
"/.	c #001540",
"(.	c #FFD100",
"                                                ",
"                                                ",
"    . . . . . . . . . . . . . . . . + @ #       ",
"    . $ $ $ $ $ $ % & * = - ; > , ' ) ! ~       ",
"    . $ $ $ $ $ % { ] = ^ / > ( _ ) : < [       ",
"    . $ $ $ $ } { | 1 ^ 2 3 ( 4 5 : 6 7 8       ",
"    . $ $ 9 } 0 | 1 a 2 3 b 4 5 c 6 7 d e       ",
"    . $ f g 0 h i a j k b l m c n o d p e       ",
"    . f q r h s t j u v l w x n y z p A e       ",
"    . q * B s ; C u ' D w E F y G H A A e       ",
"    . * = - ; > , ' ) ! E I J G K A A A e       ",
"    . . . . . . . . @ # ~ [ 8 e e L e e e       ",
"    . ^ 2 3 ( 4 5 : 6 7 M N O A L P L A e       ",
"    . 2 3 b 4 5 c 6 7 d N L L A L Q L A R R     ",
"    . k b l m c n o d p L P P L S T U L V W R   ",
"    . v l w x n y z p A A L X Y Z `  ...+.R     ",
"    . D w E F y G H A A A A L @.#.@.$.%.R       ",
"    . ! E I J G K A A A A A L &.*.V =.-.R       ",
"    . < I M ;.K A A A A A L >.V W ,.'.).!.R     ",
"    @ 7 M N O A A A A A A  ...R ~.{.].R ^.^.R   ",
"    # ~ /.8 e e e e e e e R R R R (.R R R R     ",
"                                R ^.R           ",
"                                  R             ",
"                                                "};
