/* XPM */
static char * python24_xpm[] = {
"24 24 25 1",
" 	c None",
".	c #000000",
"+	c #FFFFFF",
"@	c #007500",
"#	c #008C00",
"$	c #00BB00",
"%	c #202020",
"&	c #00AF00",
"*	c #009800",
"=	c #002F00",
"-	c #002B00",
";	c #005200",
">	c #E20000",
",	c #00A400",
"'	c #DD0000",
")	c #002500",
"!	c #CFF200",
"~	c #BFBF00",
"{	c #FFFF00",
"]	c #005000",
"^	c #6D6D00",
"/	c #EFEF00",
"(	c #DFF600",
"_	c #808000",
":	c #EFFB00",
"      ..                ",
"     .++..              ",
"    .+.++...            ",
"  ..@.++..++.           ",
" .#$$@..%+.++.          ",
" .&$$$###.++..          ",
" .&$$$$$$*==$$=         ",
" .#$$$$$$$$$$$@         ",
"  -;$$$$$.$$$$$.        ",
"   >.....#,$$$$-        ",
"  '      ...$$$#. ..)   ",
" '          .$$#. =.*.  ",
"> >        .!.$$@  ..-  ",
"          .~{.$$$=  ]#. ",
"         .^/{(.$$*. .&. ",
"       )=._{{{.$$$.  =. ",
"      )#$._{{{.$$$.  =. ",
"     .*$$._{{..$$$.  =. ",
"     -$$*.^/:.$$$$=@=$. ",
"    .#$$= ....$$$@=$$,. ",
"    .#$$*.].$$$$$= ...  ",
"     .$$$$$$$$*#]       ",
"      .#$$$$..).        ",
"       )....            "};
