/* XPM */
static char * python16_xpm[] = {
"16 16 33 1",
" 	c None",
".	c #000000",
"+	c #FFFFFF",
"@	c #00BB00",
"#	c #00AB00",
"$	c #FF0000",
"%	c #006300",
"&	c #007800",
"*	c #004100",
"=	c #006800",
"-	c #95A400",
";	c #007D00",
">	c #ADAD00",
",	c #DCE100",
"'	c #326000",
")	c #2B2B00",
"!	c #D5D500",
"~	c #FFFF00",
"{	c #555500",
"]	c #008500",
"^	c #00B600",
"/	c #C6C600",
"(	c #1C1C00",
"_	c #008C00",
":	c #1F1F00",
"<	c #828200",
"[	c #6A7000",
"}	c #004E00",
"|	c #006D00",
"1	c #005D00",
"2	c #001700",
"3	c #001200",
"4	c #00A600",
"    ..          ",
"   .++..        ",
" ..@.+++.       ",
" .@@@@.+.       ",
" .@@@@@@@.      ",
" ..@@@.@@#.     ",
"  $...%&@@. *.  ",
" $     .=@. .@. ",
"$ $    .-;#. @* ",
"      .>,'@. *. ",
"    ..)!~{@@.@* ",
"   .]^)!/(@@.@. ",
"  .*@_:<[;@#}|* ",
"  .1@_23;4@*.*  ",
"   ._^@@;..     ",
"    .....       "};
