/* XPM */
static char * reload_xpm[] = {
"16 16 150 2",
"  	c None",
". 	c #6E6F9F",
"+ 	c #797AA6",
"@ 	c #7879A6",
"# 	c #7274A2",
"$ 	c #69699A",
"% 	c #676797",
"& 	c #9A9BBC",
"* 	c #FEFFFF",
"= 	c #FDFEFF",
"- 	c #FBFDFF",
"; 	c #F9FCFF",
"> 	c #F7FBFF",
", 	c #F6FAFF",
"' 	c #F4F9FF",
") 	c #C5C9DE",
"! 	c #A3A7C7",
"~ 	c #ACB1CD",
"{ 	c #999ABC",
"] 	c #FAFCFF",
"^ 	c #ADCEB3",
"/ 	c #F3F9FF",
"( 	c #C3C7DC",
"_ 	c #8A8DB4",
": 	c #BAC0D9",
"< 	c #797BA6",
"[ 	c #989ABC",
"} 	c #F8FCFF",
"| 	c #C0DACC",
"1 	c #0F6F10",
"2 	c #9DC5A7",
"3 	c #D3D9EA",
"4 	c #979CBF",
"5 	c #9195BF",
"6 	c #656597",
"7 	c #9799BC",
"8 	c #F5FAFF",
"9 	c #F5F9FF",
"0 	c #8BBA91",
"a 	c #38883E",
"b 	c #006600",
"c 	c #187419",
"d 	c #93BFA1",
"e 	c #E5F2FF",
"f 	c #E4F1FF",
"g 	c #D6E1FF",
"h 	c #7375A6",
"i 	c #9699BC",
"j 	c #F3F8FF",
"k 	c #F2F8FF",
"l 	c #86B78E",
"m 	c #127113",
"n 	c #418E4B",
"o 	c #227B26",
"p 	c #B3D3C6",
"q 	c #E3F0FF",
"r 	c #9598BC",
"s 	c #F0F7FF",
"t 	c #EFF7FF",
"u 	c #4F9655",
"v 	c #438F4C",
"w 	c #C2DBD4",
"x 	c #147216",
"y 	c #BFDAD3",
"z 	c #AACDBD",
"A 	c #80B491",
"B 	c #E0F0FF",
"C 	c #D5E0FF",
"D 	c #9498BC",
"E 	c #EDF6FF",
"F 	c #ECF6FF",
"G 	c #4E9655",
"H 	c #569B62",
"I 	c #DBEBF1",
"J 	c #D0E4E6",
"K 	c #CDE3E6",
"L 	c #51975E",
"M 	c #63A371",
"N 	c #DEEEFF",
"O 	c #D4E0FF",
"P 	c #9397BC",
"Q 	c #EAF4FF",
"R 	c #E9F3FF",
"S 	c #4E9555",
"T 	c #5EA06D",
"U 	c #DAEAF2",
"V 	c #C7E0E2",
"W 	c #4A9354",
"X 	c #62A271",
"Y 	c #DBECFF",
"Z 	c #D3DFFF",
"` 	c #9297BC",
" .	c #E7F3FF",
"..	c #E6F2FF",
"+.	c #6EA97B",
"@.	c #BDD9D3",
"#.	c #B6D5CD",
"$.	c #167319",
"%.	c #ADCFC6",
"&.	c #398941",
"*.	c #61A171",
"=.	c #D8EBFF",
"-.	c #D2DFFF",
";.	c #9196BC",
">.	c #E3F1FF",
",.	c #A8CCBD",
"'.	c #117013",
").	c #086B09",
"!.	c #18751C",
"~.	c #87B9A1",
"{.	c #D5E9FF",
"].	c #D1DEFF",
"^.	c #E2F0FF",
"/.	c #E1EFFF",
"(.	c #E0EFFF",
"_.	c #7EB391",
":.	c #0B6D0D",
"<.	c #056906",
"[.	c #3B8A45",
"}.	c #86B9A1",
"|.	c #D4E9FF",
"1.	c #D3E8FF",
"2.	c #D0DEFF",
"3.	c #9095BC",
"4.	c #DFEEFF",
"5.	c #DCEDFF",
"6.	c #84B79A",
"7.	c #137116",
"8.	c #B1D3D2",
"9.	c #D2E8FF",
"0.	c #D0E7FF",
"a.	c #CFDDFF",
"b.	c #8F95BC",
"c.	c #DDEDFF",
"d.	c #D9EBFF",
"e.	c #D7EAFF",
"f.	c #96C2B3",
"g.	c #D1E8FF",
"h.	c #CEE6FF",
"i.	c #8B90BC",
"j.	c #D2DEFF",
"k.	c #D2DDFF",
"l.	c #D1DDFF",
"m.	c #D0DDFF",
"n.	c #D0DCFF",
"o.	c #CFDCFF",
"p.	c #CFDAFF",
"q.	c #5E5E91",
"r.	c #666699",
"s.	c #5C5B8F",
"    . + + @ @ @ @ @ # $ %       ",
"    & * = - ; > , ' ) ! ~       ",
"    { - ] ] ; > ^ / ( _ : <     ",
"    [ } > > , | 1 2 3 4 4 5 6   ",
"    7 8 9 ' 0 a b c d e f g h   ",
"    i j k l m n b o p f q g h   ",
"    r s t u v w x y z A B C h   ",
"    D E F G H I J K L M N O h   ",
"    P Q R S T U K V W X Y Z h   ",
"    `  ...+.@.#.$.%.&.*.=.-.h   ",
"    ;.f f >.,.'.).&.!.~.{.].h   ",
"    ;.^./.(._.:.<.[.}.|.1.2.h   ",
"    3.4.N 5.Y 6.7.8.|.9.0.a.h   ",
"    b.N c.Y d.e.f.1.g.0.h.a.h   ",
"    i.j.j.k.l.m.m.n.o.o.o.p.h   ",
"    q.r.r.r.r.r.r.r.r.r.r.r.s.  "};
