/* XPM */
static char * reload24_xpm[] = {
"24 24 197 2",
"  	c None",
". 	c #525083",
"+ 	c #8E93BD",
"@ 	c #EBEAF0",
"# 	c #EAEAF0",
"$ 	c #E5E8F0",
"% 	c #E4E7F0",
"& 	c #E2E6F0",
"* 	c #E0E5F0",
"= 	c #DFE4F0",
"- 	c #DDE3F0",
"; 	c #DCE2F0",
"> 	c #DAE2F0",
", 	c #D8E1F0",
"' 	c #D0D8EA",
") 	c #5B5A8B",
"! 	c #FEFEFF",
"~ 	c #FDFEFF",
"{ 	c #F8FBFF",
"] 	c #F6FBFF",
"^ 	c #F4FAFF",
"/ 	c #F2F9FF",
"( 	c #F1F8FF",
"_ 	c #9FC6AA",
": 	c #EDF6FF",
"< 	c #EBF4FF",
"[ 	c #E9F4FF",
"} 	c #E0EAF8",
"| 	c #8287AF",
"1 	c #ABB7D5",
"2 	c #FAFCFF",
"3 	c #F9FCFF",
"4 	c #F5FAFF",
"5 	c #F3F9FF",
"6 	c #EFF7FF",
"7 	c #EEF6FF",
"8 	c #107012",
"9 	c #99C3A6",
"0 	c #E7F2FD",
"a 	c #E6F2FF",
"b 	c #DEE9F8",
"c 	c #DAECFF",
"d 	c #A9B4D3",
"e 	c #F7FAFF",
"f 	c #ECF5FF",
"g 	c #006600",
"h 	c #91BEA1",
"i 	c #E4F1FF",
"j 	c #DBE8F8",
"k 	c #71749F",
"l 	c #AAB5D3",
"m 	c #A8B3D3",
"n 	c #797CA9",
"o 	c #F0F7FF",
"p 	c #DCECEC",
"q 	c #54995A",
"r 	c #53995A",
"s 	c #0E6F10",
"t 	c #95C1A8",
"u 	c #DFEDFC",
"v 	c #ABB5D3",
"w 	c #F4F9FF",
"x 	c #F2F8FF",
"y 	c #D0E3DF",
"z 	c #2A7F2D",
"A 	c #1F7923",
"B 	c #B9D7D5",
"C 	c #DBECFF",
"D 	c #D6E8FF",
"E 	c #F1F7FF",
"F 	c #CFE3DF",
"G 	c #358638",
"H 	c #157318",
"I 	c #A7CCBF",
"J 	c #8ABBA0",
"K 	c #D9ECFF",
"L 	c #D8EBFF",
"M 	c #D5E7FF",
"N 	c #EFF6FF",
"O 	c #B3D3C3",
"P 	c #167319",
"Q 	c #BCD8D2",
"R 	c #BBD8D2",
"S 	c #0F6F12",
"T 	c #A6CCBF",
"U 	c #79B08C",
"V 	c #16731A",
"W 	c #D7EBFF",
"X 	c #D6EAFF",
"Y 	c #D4E7FF",
"Z 	c #EDF5FF",
"` 	c #B2D2C3",
" .	c #1B761E",
"..	c #E3F0FF",
"+.	c #E2EFFF",
"@.	c #1B761F",
"#.	c #A7CDC1",
"$.	c #B5D5D2",
"%.	c #0D6E0F",
"&.	c #D5EAFF",
"*.	c #D4E9FF",
"=.	c #D2E6FF",
"-.	c #EBF5FF",
";.	c #B1D1C3",
">.	c #E0EFFF",
",.	c #AFD1CA",
"'.	c #DCEDFF",
").	c #B3D5D2",
"!.	c #D3E8FF",
"~.	c #D1E5FF",
"{.	c #E8F3FF",
"].	c #AED0C3",
"^.	c #1A761E",
"/.	c #DEEEFF",
"(.	c #DDEDFF",
"_.	c #ADD0CA",
":.	c #B1D3D2",
"<.	c #0C6E0F",
"[.	c #D1E7FF",
"}.	c #CFE7FF",
"|.	c #CFE4FF",
"1.	c #E7F2FF",
"2.	c #ADD0C3",
"3.	c #81B595",
"4.	c #3F8D4B",
"5.	c #D7EAFF",
"6.	c #B0D3D2",
"7.	c #CEE6FF",
"8.	c #CEE4FF",
"9.	c #E5F1FF",
"0.	c #ABCFC3",
"a.	c #A5CBBF",
"b.	c #75AE88",
"c.	c #086B09",
"d.	c #34863E",
"e.	c #B0D2D2",
"f.	c #8FBEAD",
"g.	c #CDE6FF",
"h.	c #CCE5FF",
"i.	c #CCE3FF",
"j.	c #E3F1FF",
"k.	c #E2F0FF",
"l.	c #C1DDDF",
"m.	c #A4CBBF",
"n.	c #78B08C",
"o.	c #4F9764",
"p.	c #CAE4FF",
"q.	c #C9E4FF",
"r.	c #CAE2FF",
"s.	c #E1F0FF",
"t.	c #88BAA0",
"u.	c #0B6D0D",
"v.	c #026703",
"w.	c #BFDDF1",
"x.	c #C8E4FF",
"y.	c #C7E3FF",
"z.	c #C9E1FF",
"A.	c #DEEFFF",
"B.	c #DDEEFF",
"C.	c #5B9E6D",
"D.	c #15731A",
"E.	c #48935A",
"F.	c #5FA177",
"G.	c #C9E3FF",
"H.	c #C6E2FF",
"I.	c #C4E1FF",
"J.	c #C7E0FF",
"K.	c #CBE4F4",
"L.	c #509761",
"M.	c #3C8B4B",
"N.	c #CDE5FF",
"O.	c #CBE4FF",
"P.	c #C7E2FF",
"Q.	c #C3E0FF",
"R.	c #C5E0FF",
"S.	c #DBEDFF",
"T.	c #D2E8FF",
"U.	c #CBE4F9",
"V.	c #5B9F71",
"W.	c #C5E1FF",
"X.	c #C2DFFF",
"Y.	c #C1DFFF",
"Z.	c #C3DEFF",
"`.	c #D8ECFF",
" +	c #CFE6FF",
".+	c #87BAAA",
"++	c #C8E3FF",
"@+	c #C0DFFF",
"#+	c #BFDEFF",
"$+	c #C2DEFF",
"%+	c #C4D0F0",
"&+	c #C3D0F0",
"*+	c #C2D0F0",
"=+	c #C2CFF0",
"-+	c #C1CFF0",
";+	c #C0CEF0",
">+	c #878BB6",
"                                                ",
"        . . . . . . . . . . . . .               ",
"        + @ # $ % & * = - ; > , ' )             ",
"        + ! ~ { ] ^ / ( _ : < [ } | 1           ",
"        + 2 3 4 5 ( 6 7 8 9 0 a b | c d         ",
"        + { e 5 ( 6 : f g g h i j k l m n       ",
"        + e 4 ( o p q r g g s t u v l m n       ",
"        + w x 7 y z g g g g g A B C c D +       ",
"        + x E F G g g g g g H I J K L M +       ",
"        + o N O g P Q R g S T U V W X Y +       ",
"        + 7 Z ` g  ...+.@.#.$.g %.&.*.=.+       ",
"        + Z -.;.g  .+.>.,.'.).g %.*.!.~.+       ",
"        + [ {.].g ^./.(._.L :.g <.[.}.|.+       ",
"        + {.1.2.g ^.(.3.4.5.6.g <.}.7.8.+       ",
"        + a 9.0.H a.b.c.d.e.f.g <.g.h.i.+       ",
"        + j.k.l.m.n.g g g g g g o.p.q.r.+       ",
"        + s.>.'.t.u.g g g g v.o.w.x.y.z.+       ",
"        + A.B.K W C.g g D.E.F.p.G.H.I.J.+       ",
"        + B.'.L X K.L.g M.N.O.G.P.I.Q.R.+       ",
"        + S.K &.*.T.U.V.M.p.G.P.W.X.Y.Z.+       ",
"        + K `.&.T.[. +g..+++P.W.Q.@+#+$++       ",
"        + %+%+%+&+&+*+=+=+-+-+-+;+;+;+;+>+      ",
"        . . . . . . . . . . . . . . . . .       ",
"                                                "};
