/* XPM */
static char * replace16_xpm[] = {
"16 16 141 2",
"  	c None",
". 	c #2B53AC",
"+ 	c #6A86C5",
"@ 	c #8098CE",
"# 	c #7F97CE",
"$ 	c #7E96CE",
"% 	c #6784C5",
"& 	c #516796",
"* 	c #5575BD",
"= 	c #D5DDEF",
"- 	c #FFFFFF",
"; 	c #FBFDFF",
"> 	c #F8FCFF",
", 	c #CBD8EF",
"' 	c #A0B5DE",
") 	c #9FA6AD",
"! 	c #3D558A",
"~ 	c #B1B9C9",
"{ 	c #A9AAAB",
"] 	c #4F5255",
"^ 	c #CDD8E9",
"/ 	c #828FA8",
"( 	c #99A1AA",
"_ 	c #4C5055",
": 	c #1D262F",
"< 	c #66798D",
"[ 	c #6F86A0",
"} 	c #8295AB",
"| 	c #828E99",
"1 	c #7B7F82",
"2 	c #7A94CE",
"3 	c #7894CE",
"4 	c #6F8BC7",
"5 	c #5370AA",
"6 	c #4B68A3",
"7 	c #254079",
"8 	c #002882",
"9 	c #5A6776",
"0 	c #C8E3FF",
"a 	c #C6E2FF",
"b 	c #C3E0FF",
"c 	c #BEDEFF",
"d 	c #8DA7C2",
"e 	c #8191B0",
"f 	c #F8F8F8",
"g 	c #FBFCFF",
"h 	c #F8FBFF",
"i 	c #A2B6DE",
"j 	c #8B98AF",
"k 	c #5C6876",
"l 	c #B9CDE3",
"m 	c #D2E8FF",
"n 	c #D1E7FF",
"o 	c #CEE6FF",
"p 	c #CBE4FF",
"q 	c #C5E1FF",
"r 	c #BFDEFF",
"s 	c #91A5BB",
"t 	c #C1C5C9",
"u 	c #A0B4DE",
"v 	c #C4D4EF",
"w 	c #A3B2C2",
"x 	c #DCEDFF",
"y 	c #DEEEFF",
"z 	c #DAECFF",
"A 	c #D6EAFF",
"B 	c #AFCCEB",
"C 	c #7F8C99",
"D 	c #888F95",
"E 	c #5F646A",
"F 	c #E0EFFF",
"G 	c #E4F1FF",
"H 	c #E7F2FF",
"I 	c #E6F2FF",
"J 	c #E2F0FF",
"K 	c #DDEEFF",
"L 	c #D4E9FF",
"M 	c #CDE6FF",
"N 	c #5F7284",
"O 	c #EAF4FF",
"P 	c #EFF7FF",
"Q 	c #F3F9FF",
"R 	c #F2F8FF",
"S 	c #ECF5FF",
"T 	c #627384",
"U 	c #4E5155",
"V 	c #4D5055",
"W 	c #4B5055",
"X 	c #4A4F55",
"Y 	c #F6FAFF",
"Z 	c #FAFCFF",
"` 	c #EBF4FF",
" .	c #DFEFFF",
"..	c #D7EAFF",
"+.	c #637384",
"@.	c #7FABC9",
"#.	c #F5F9FD",
"$.	c #F7FAFF",
"%.	c #EEF6FF",
"&.	c #D8EBFF",
"*.	c #A4B6C8",
"=.	c #979EA6",
"-.	c #494F55",
";.	c #484E55",
">.	c #464D55",
",.	c #C3DAEA",
"'.	c #FEFFFF",
").	c #F6F9FF",
"!.	c #EDF5FF",
"~.	c #E1EFFF",
"{.	c #716B53",
"].	c #A18748",
"^.	c #A7CAE1",
"/.	c #C9DFEE",
"(.	c #CBDFEF",
"_.	c #C4DAEC",
":.	c #A4BBCE",
"<.	c #6F725C",
"[.	c #E0C100",
"}.	c #FFDC00",
"|.	c #8B6A0E",
"1.	c #62625C",
"2.	c #5A97C1",
"3.	c #578EB4",
"4.	c #906B0A",
"5.	c #FFDB00",
"6.	c #FFE200",
"7.	c #F0C707",
"8.	c #C0A44E",
"9.	c #94730A",
"0.	c #F0CA00",
"a.	c #FFE100",
"b.	c #FFD900",
"c.	c #B19540",
"d.	c #828A8B",
"e.	c #738699",
"f.	c #718599",
"g.	c #B78600",
"h.	c #FFDA00",
"i.	c #EAC100",
"j.	c #986F00",
"        . + @ @ # $ % &         ",
"        * = - - ; > , ' )       ",
"        ! ~ { ] ] ] ^ / ( _     ",
"    : < [ } | 1 2 3 4 5 6 7 8   ",
"  9 0 0 a b c d e f - - g h i j ",
"k l m n o p q r s t ] ] ] - u v ",
"w x y y z A o 0 B C - - - - D E ",
"F G H I J K L M b N - - - - - - ",
"O P Q R S I x L 0 T ] U V W X - ",
"P Y ; Z R `  ...p +.- - - - - - ",
"@.#.- - $.%.J &.*.=._ W -.;.>.- ",
"  ,.- '.).!.~.&.{.].- - - - - - ",
"    ^./.(._.:.<.[.}.|.1.] ] ] - ",
"        2.3.  4.5.6.7.8.- - - - ",
"                9.0.a.b.c.d.e.f.",
"                  g.h.a.i.j.    "};
