/* XPM */
static char * replace24_xpm[] = {
"24 24 233 2",
"  	c None",
". 	c #204AA8",
"+ 	c #4064B5",
"@ 	c #3F63B5",
"# 	c #3E63B5",
"$ 	c #1F49A8",
"% 	c #2D3A57",
"& 	c #8098CE",
"* 	c #FFFFFF",
"= 	c #FEFEFF",
"- 	c #FCFDFF",
"; 	c #FAFCFF",
"> 	c #F7FAFF",
", 	c #7B95CE",
"' 	c #B5C6E6",
") 	c #66696D",
"! 	c #FBFDFF",
"~ 	c #F9FCFF",
"{ 	c #F6FBFF",
"] 	c #F3F9FF",
"^ 	c #7994CE",
"/ 	c #B2C5E6",
"( 	c #DCE6EF",
"_ 	c #64696D",
": 	c #CFCFCF",
"< 	c #3F3F40",
"[ 	c #3E3F40",
"} 	c #3D3E40",
"| 	c #3C3E40",
"1 	c #F0F7FF",
"2 	c #778DBA",
"3 	c #8492AD",
"4 	c #AEB6BF",
"5 	c #ADB5BF",
"6 	c #2B2D30",
"7 	c #00050A",
"8 	c #000E27",
"9 	c #404E6C",
"0 	c #808285",
"a 	c #9EA0A3",
"b 	c #F7FBFF",
"c 	c #F4F9FF",
"d 	c #F2F8FF",
"e 	c #EFF7FF",
"f 	c #ECF5FF",
"g 	c #AFB7BF",
"h 	c #73797F",
"i 	c #71787F",
"j 	c #70787F",
"k 	c #1C1E20",
"l 	c #526273",
"m 	c #8FA8C2",
"n 	c #8EA8C2",
"o 	c #8DA7C2",
"p 	c #798EA3",
"q 	c #3E4347",
"r 	c #3D4042",
"s 	c #3D62B5",
"t 	c #3C62B5",
"u 	c #3B62B5",
"v 	c #3B61B5",
"w 	c #3A61B5",
"x 	c #3961B5",
"y 	c #3960B5",
"z 	c #3860B5",
"A 	c #0E3385",
"B 	c #00309C",
"C 	c #00184E",
"D 	c #2F3843",
"E 	c #C6E2FF",
"F 	c #C5E1FF",
"G 	c #C2E0FF",
"H 	c #C0DFFF",
"I 	c #BDDDFF",
"J 	c #BCDDFF",
"K 	c #526375",
"L 	c #405C99",
"M 	c #FDFDFF",
"N 	c #F8FBFF",
"O 	c #B8C7E6",
"P 	c #7994CD",
"Q 	c #696C70",
"R 	c #45505C",
"S 	c #B3C9E0",
"T 	c #CDE5FF",
"U 	c #CBE4FF",
"V 	c #C9E3FF",
"W 	c #BFDEFF",
"X 	c #667584",
"Y 	c #BFC1C2",
"Z 	c #FDFEFF",
"` 	c #F5FAFF",
" .	c #B6C6E6",
"..	c #7793CE",
"+.	c #EDF6FF",
"@.	c #303943",
"#.	c #B7CBE0",
"$.	c #D2E8FF",
"%.	c #D4E9FF",
"&.	c #D3E8FF",
"*.	c #D1E7FF",
"=.	c #CFE6FF",
"-.	c #CCE5FF",
";.	c #C8E3FF",
">.	c #C4E1FF",
",.	c #B0CFF0",
"'.	c #667585",
").	c #CFD0D1",
"!.	c #404040",
"~.	c #B4C5E6",
"{.	c #7692CE",
"].	c #EAF4FF",
"^.	c #5E6975",
"/.	c #D8EBFF",
"(.	c #DAECFF",
"_.	c #DCEDFF",
":.	c #DBEDFF",
"<.	c #D9EBFF",
"[.	c #D6EAFF",
"}.	c #CEE6FF",
"|.	c #768CA3",
"1.	c #9B9FA3",
"2.	c #393D40",
"3.	c #393C40",
"4.	c #DBECFF",
"5.	c #DEEEFF",
"6.	c #E1EFFF",
"7.	c #E2F0FF",
"8.	c #DFEFFF",
"9.	c #D3E9FF",
"0.	c #C9E4FF",
"a.	c #BEDEFF",
"b.	c #2F3B47",
"c.	c #E4F1FF",
"d.	c #E7F2FF",
"e.	c #E9F3FF",
"f.	c #E8F3FF",
"g.	c #E5F1FF",
"h.	c #E1F0FF",
"i.	c #DDEEFF",
"j.	c #D7EBFF",
"k.	c #EBF5FF",
"l.	c #EEF6FF",
"m.	c #F0F8FF",
"n.	c #F1F8FF",
"o.	c #E7F3FF",
"p.	c #E3F0FF",
"q.	c #DDEDFF",
"r.	c #D7EAFF",
"s.	c #C3E1FF",
"t.	c #303C47",
"u.	c #3C3D40",
"v.	c #3B3D40",
"w.	c #3A3D40",
"x.	c #3A3C40",
"y.	c #383C40",
"z.	c #383B40",
"A.	c #373B40",
"B.	c #F6FAFF",
"C.	c #F1F7FF",
"D.	c #E6F2FF",
"E.	c #E0EFFF",
"F.	c #313C47",
"G.	c #EAF3FF",
"H.	c #D5E9FF",
"I.	c #CEE5FF",
"J.	c #C7E2FF",
"K.	c #4884AD",
"L.	c #F9FBFF",
"M.	c #657585",
"N.	c #AEB7C2",
"O.	c #363B40",
"P.	c #353A40",
"Q.	c #343A40",
"R.	c #3E86B5",
"S.	c #BFD8EA",
"T.	c #B5CAE0",
"U.	c #524E45",
"V.	c #BCBFC0",
"W.	c #408ABA",
"X.	c #D0E2EF",
"Y.	c #FCFEFF",
"Z.	c #3F3F39",
"`.	c #9F7301",
" +	c #A98330",
".+	c #116EA9",
"++	c #C0D9EA",
"@+	c #DCEAF4",
"#+	c #D3E4F5",
"$+	c #A6BFD5",
"%+	c #455050",
"&+	c #B99400",
"*+	c #FFE400",
"=+	c #FFD400",
"-+	c #7F5600",
";+	c #2B2720",
">+	c #333940",
",+	c #323940",
"'+	c #5D9CC6",
")+	c #82B3D4",
"!+	c #80B1D3",
"~+	c #7DABCB",
"{+	c #7AA5C4",
"]+	c #6691AF",
"^+	c #303D39",
"/+	c #A37F0A",
"(+	c #FFE300",
"_+	c #FFE800",
":+	c #FFDE00",
"<+	c #EFC100",
"[+	c #B49440",
"}+	c #C9D5DF",
"|+	c #9C6B00",
"1+	c #FFD200",
"2+	c #FFDD00",
"3+	c #FFDA00",
"4+	c #A68130",
"5+	c #7F5C0A",
"6+	c #FFDC00",
"7+	c #A48030",
"8+	c #A5B3BF",
"9+	c #93A9BF",
"0+	c #91A8BF",
"a+	c #8FA7BF",
"b+	c #8DA6BF",
"c+	c #212E28",
"d+	c #A97700",
"e+	c #FFE600",
"f+	c #7F5900",
"g+	c #190F00",
"h+	c #000000",
"i+	c #9C6900",
"j+	c #FFD300",
"              . + + + + + @ @ # $ %             ",
"              & * * * * = - ; > , ' )           ",
"              & * * * = ! ~ { ] ^ / ( _         ",
"              & * : < [ } } | 1 2 3 4 5 6       ",
"          7 8 9 0 a ~ b c d e f g h i j k       ",
"      7 l m n o o p q r s t u v w x y z A B C   ",
"    D E E E F G H I J K L * * * * * M ; N O P Q ",
"  R S T T T U V E G W J X Y * * * Z ; N `  ...+.",
"@.#.$.%.%.&.*.=.-.;.>.W ,.'.).!.!.< [ [ * ~.{.].",
"^./.(._._.:.<.[.&.}.V F W |.1.* * * * * * * 2.3.",
"4.5.6.7.7.7.8._./.9.}.0.G a.b.* * * * * * * * * ",
"6.c.d.e.e.f.g.h.i.j.$.T E H b.* * * * * * * * * ",
"d.k.l.m.n.e k.o.p.q.r.*.0.s.t.u.v.w.x.3.y.z.A.* ",
"k.1 c b b B.C.f D.E.(.9.-.E F.* * * * * * * * * ",
"l.c ~ Z Z ! ` 1 G.7._.H.I.J.F.* * * * * * * * * ",
"K.b Z * * = L.d k.c.q.[.=.M.N.3.y.y.A.O.O.P.Q.* ",
"R.S.Z * * * L.d f c.i.[.T.U.V.* * * * * * * * * ",
"  W.X.= * Y.> C.].p._.[.Z.`. +* * * * * * * * * ",
"    .+++@+b d +.d.#+$+%+&+*+=+-+;+P.Q.Q.>+,+,+* ",
"      .+'+)+!+~+{+]+^+/+(+_+:+<+[+}+* * * * * * ",
"                      |+1+2+*+3+<+4+* * * * * * ",
"                        5+<+(+(+6+1+7+8+9+0+a+b+",
"                        c+d+<+:+e+6+<+f+g+h+h+h+",
"                            i+j+:+(+3+<+i+      "};
