/* XPM */
static char * run_xpm[] = {
"16 16 27 1",
" 	c None",
".	c #0063CD",
"+	c #80ADE3",
"@	c #FFFFFF",
"#	c #8DACDC",
"$	c #FDFEFF",
"%	c #F2F8FF",
"&	c #7395D1",
"*	c #EEF6FF",
"=	c #E0EFFF",
"-	c #D2E8FF",
";	c #6E97D7",
">	c #0060C9",
",	c #E2F0FF",
"'	c #D4E9FF",
")	c #C2E0FF",
"!	c #B5DAFF",
"~	c #5A89D1",
"{	c #0156C0",
"]	c #D0E8FF",
"^	c #B3D9FF",
"/	c #AFD7FF",
"(	c #0250BA",
"_	c #6392D7",
":	c #0348B1",
"<	c #0541AB",
"[	c #053BA4",
"                ",
"                ",
"     .          ",
"     .+         ",
"     .@#        ",
"     .$%&       ",
"     .*=-;      ",
"     >,')!~     ",
"     {])^/~     ",
"     ()!/_      ",
"     :^/~       ",
"     </_        ",
"     [~         ",
"     [          ",
"                ",
"                "};
