/* XPM */
static char * run24_xpm[] = {
"24 24 76 1",
" 	c None",
".	c #002F9C",
"+	c #2166A6",
"@	c #FEFEFF",
"#	c #00309C",
"$	c #F7FAFF",
"%	c #FCFDFE",
"&	c #002B8C",
"*	c #F0F7FF",
"=	c #F4F9FE",
"-	c #FBFDFE",
";	c #00267C",
">	c #EAF4FF",
",	c #ECF5FE",
"'	c #F3F9FE",
")	c #FAFCFE",
"!	c #00216D",
"~	c #E3F0FF",
"{	c #E4F1FE",
"]	c #EBF5FE",
"^	c #F1F8FE",
"/	c #F8FBFE",
"(	c #001C5D",
"_	c #DDEDFF",
":	c #DCEDFE",
"<	c #E3F1FE",
"[	c #EAF4FE",
"}	c #F0F7FE",
"|	c #F7FBFE",
"1	c #00174E",
"2	c #D6EAFF",
"3	c #D5EAFE",
"4	c #DBEDFE",
"5	c #E2F0FE",
"6	c #E8F3FE",
"7	c #EFF7FE",
"8	c #F5FAFE",
"9	c #00133E",
"0	c #CFE7FF",
"a	c #CDE6FE",
"b	c #D3E9FE",
"c	c #DAECFE",
"d	c #E0EFFE",
"e	c #E7F3FE",
"f	c #EDF6FE",
"g	c #000E2E",
"h	c #C9E4FF",
"i	c #C5E2FE",
"j	c #CBE5FE",
"k	c #D2E8FE",
"l	c #D8EBFE",
"m	c #DFEFFE",
"n	c #E6F2FE",
"o	c #000000",
"p	c #00091F",
"q	c #C2E0FF",
"r	c #BDDEFE",
"s	c #C3E1FE",
"t	c #CAE4FE",
"u	c #D1E8FE",
"v	c #D7EBFE",
"w	c #DEEEFE",
"x	c #00040F",
"y	c #BCDDFF",
"z	c #B5DAFE",
"A	c #BCDDFE",
"B	c #C2E0FE",
"C	c #C9E4FE",
"D	c #CFE7FE",
"E	c #B5DAFF",
"F	c #AFD7FE",
"G	c #B4D9FE",
"H	c #BADCFE",
"I	c #C1E0FE",
"J	c #AFD7FF",
"K	c #B2D8FE",
"                        ",
"                        ",
"                        ",
"       .+               ",
"       .@#              ",
"       .$%#             ",
"       &*=-#            ",
"       ;>,')#           ",
"       !~{]^/#          ",
"       (_:<[}|#         ",
"       12345678#        ",
"       90abcdef=#       ",
"       ghijklmn,o       ",
"       pqrstuvwo        ",
"       xyzABCDo         ",
"       oEFGHIo          ",
"       oJFFKo           ",
"       oJFFo            ",
"       oFFo             ",
"       oFo              ",
"       oo               ",
"                        ",
"                        ",
"                        "};
