/* XPM */
static char * save_xpm[] = {
"16 16 103 2",
"  	c None",
". 	c #535187",
"+ 	c #54538E",
"@ 	c #63618F",
"# 	c #77769F",
"$ 	c #76769F",
"% 	c #75759F",
"& 	c #73749F",
"* 	c #71739F",
"= 	c #70739F",
"- 	c #6F729F",
"; 	c #5F5F8F",
"> 	c #525083",
", 	c #565593",
"' 	c #5D5EB4",
") 	c #9B9CBA",
"! 	c #F5FAFF",
"~ 	c #F1F8FF",
"{ 	c #EAF4FF",
"] 	c #E5F2FF",
"^ 	c #E1EFFF",
"/ 	c #DCEDFF",
"( 	c #D5E9FF",
"_ 	c #D1E7FF",
": 	c #8993BA",
"< 	c #979ABA",
"[ 	c #ECF5FF",
"} 	c #E7F3FF",
"| 	c #E0EFFF",
"1 	c #D7EAFF",
"2 	c #D2E8FF",
"3 	c #CBE4FF",
"4 	c #C7E2FF",
"5 	c #8591BA",
"6 	c #575699",
"7 	c #54528A",
"8 	c #9599BA",
"9 	c #E6F2FF",
"0 	c #E2F0FF",
"a 	c #DBECFF",
"b 	c #D6EAFF",
"c 	c #D1E8FF",
"d 	c #CCE5FF",
"e 	c #C5E2FF",
"f 	c #C1DFFF",
"g 	c #838FBA",
"h 	c #9297BA",
"i 	c #D0E7FF",
"j 	c #CBE5FF",
"k 	c #C6E2FF",
"l 	c #BFDEFF",
"m 	c #BBDCFF",
"n 	c #808EBA",
"o 	c #8E95BA",
"p 	c #C1E0FF",
"q 	c #BCDDFF",
"r 	c #B5D9FF",
"s 	c #B2D8FF",
"t 	c #7C8CBA",
"u 	c #8A93BA",
"v 	c #CFE6FF",
"w 	c #C4E1FF",
"x 	c #BADCFF",
"y 	c #B5DAFF",
"z 	c #AFD7FF",
"A 	c #7B8CBA",
"B 	c #6265CD",
"C 	c #5C5DB0",
"D 	c #54528B",
"E 	c #5B5ECC",
"F 	c #6366CE",
"G 	c #8082D3",
"H 	c #7F81D2",
"I 	c #7D7FD0",
"J 	c #7C7ECF",
"K 	c #7B7DCE",
"L 	c #7A7CCD",
"M 	c #787ACB",
"N 	c #7779CA",
"O 	c #5F61CA",
"P 	c #4143C9",
"Q 	c #6868D2",
"R 	c #CFD0E2",
"S 	c #B8B9DB",
"T 	c #D1D2D9",
"U 	c #D6D6D5",
"V 	c #D1D1D2",
"W 	c #CCCCCC",
"X 	c #C4C4C6",
"Y 	c #C0C0C1",
"Z 	c #5454C0",
"` 	c #9EA0D9",
" .	c #BFBFD6",
"..	c #4E4D92",
"+.	c #575595",
"@.	c #636296",
"#.	c #6A6996",
"$.	c #6F6E95",
"%.	c #6E6D94",
"&.	c #6D6C93",
"*.	c #6B6A92",
"=.	c #6A6991",
"-.	c #535190",
"                                ",
"  . + @ # $ % & & * = - ; > >   ",
"  , ' ) ! ~ { ] ^ / ( _ : > >   ",
"  , ' < [ } | / 1 2 3 4 5 6 7   ",
"  , ' 8 9 0 a b c d e f g ' ,   ",
"  , ' h | / ( i j k l m n ' ,   ",
"  , ' o b 2 3 k p q r s t ' ,   ",
"  , ' u v 3 w l x y z z A ' ,   ",
"  , B C D D D D D D D D C B ,   ",
"  , E F G H I J K L M N O E ,   ",
"  , P Q R S T U V W X Y Z P ,   ",
"  , P Q ` B  .U V W X Y Z P ,   ",
"  , P Q ` B  .U V W X Y Z P ,   ",
"  , P Q ` B  .U V W X Y Z P ,   ",
"    ..+.@., #.$.%.&.*.=.-...    ",
"                                "};
