/* XPM */
static char * save24_xpm[] = {
"24 24 181 2",
"  	c None",
". 	c #54528B",
"+ 	c #57579C",
"@ 	c #565698",
"# 	c #575586",
"$ 	c #8A8AAC",
"% 	c #8989AC",
"& 	c #8888AC",
"* 	c #8788AC",
"= 	c #8687AC",
"- 	c #8587AC",
"; 	c #8486AC",
"> 	c #8285AC",
", 	c #8185AC",
"' 	c #8085AC",
") 	c #7F84AC",
"! 	c #7E83AC",
"~ 	c #7D83AC",
"{ 	c #565486",
"] 	c #525083",
"^ 	c #6265CD",
"/ 	c #5F62C1",
"( 	c #605E8D",
"_ 	c #FAFCFF",
": 	c #F6FAFF",
"< 	c #F2F9FF",
"[ 	c #EFF7FF",
"} 	c #ECF5FF",
"| 	c #E8F3FF",
"1 	c #E5F2FF",
"2 	c #E2F0FF",
"3 	c #DEEEFF",
"4 	c #DBEDFF",
"5 	c #D7EBFF",
"6 	c #D4E9FF",
"7 	c #D1E7FF",
"8 	c #5D5D8D",
"9 	c #F4FAFF",
"0 	c #F1F8FF",
"a 	c #EEF6FF",
"b 	c #EAF4FF",
"c 	c #E7F2FF",
"d 	c #E4F1FF",
"e 	c #E0F0FF",
"f 	c #DDEEFF",
"g 	c #DAECFF",
"h 	c #D6EAFF",
"i 	c #D3E8FF",
"j 	c #CFE6FF",
"k 	c #CCE5FF",
"l 	c #5C5C8D",
"m 	c #5F5E8D",
"n 	c #F0F7FF",
"o 	c #E9F3FF",
"p 	c #E6F2FF",
"q 	c #DFEFFF",
"r 	c #DCEDFF",
"s 	c #D8EBFF",
"t 	c #CEE6FF",
"u 	c #CAE4FF",
"v 	c #C7E3FF",
"w 	c #535188",
"x 	c #535289",
"y 	c #525185",
"z 	c #EBF5FF",
"A 	c #E7F3FF",
"B 	c #E1F0FF",
"C 	c #D7EAFF",
"D 	c #D0E7FF",
"E 	c #CCE6FF",
"F 	c #C9E4FF",
"G 	c #C6E2FF",
"H 	c #C2E0FF",
"I 	c #5B5C8D",
"J 	c #5E5E8D",
"K 	c #E3F0FF",
"L 	c #D5E9FF",
"M 	c #D1E8FF",
"N 	c #CBE5FF",
"O 	c #C4E1FF",
"P 	c #C0DFFF",
"Q 	c #BDDDFF",
"R 	c #5E5D8D",
"S 	c #DBECFF",
"T 	c #D3E9FF",
"U 	c #CDE5FF",
"V 	c #C3E0FF",
"W 	c #BFDEFF",
"X 	c #BCDCFF",
"Y 	c #B8DBFF",
"Z 	c #DCEEFF",
"` 	c #D9ECFF",
" .	c #D2E8FF",
"..	c #C8E3FF",
"+.	c #C5E1FF",
"@.	c #C1DFFF",
"#.	c #BEDDFF",
"$.	c #BBDCFF",
"%.	c #B7DAFF",
"&.	c #B3D9FF",
"*.	c #5A5B8D",
"=.	c #BCDDFF",
"-.	c #B9DBFF",
";.	c #B5DAFF",
">.	c #B2D8FF",
",.	c #B0D7FF",
"'.	c #C5E2FF",
").	c #BEDEFF",
"!.	c #B7DBFF",
"~.	c #B4D9FF",
"{.	c #B1D8FF",
"].	c #AFD7FF",
"^.	c #6163C7",
"/.	c #5F60AA",
"(.	c #919CC1",
"_.	c #909BC1",
":.	c #8E9AC1",
"<.	c #8C99C1",
"[.	c #8B98C1",
"}.	c #8997C1",
"|.	c #8797C1",
"1.	c #8596C1",
"2.	c #8495C1",
"3.	c #8294C1",
"4.	c #8194C1",
"5.	c #5D5FAA",
"6.	c #6164C9",
"7.	c #5959A2",
"8.	c #5D5FCC",
"9.	c #4143C9",
"0.	c #5254CB",
"a.	c #0505C1",
"b.	c #3A3ACA",
"c.	c #3A3AC9",
"d.	c #3838C8",
"e.	c #3838C7",
"f.	c #3737C7",
"g.	c #3636C6",
"h.	c #3535C5",
"i.	c #3434C4",
"j.	c #3333C3",
"k.	c #3232C2",
"l.	c #3131C2",
"m.	c #3030C1",
"n.	c #2F2FC0",
"o.	c #0404C0",
"p.	c #1414C3",
"q.	c #EAEAE8",
"r.	c #D2D3E1",
"s.	c #CDCDDD",
"t.	c #CACADB",
"u.	c #D4D4D9",
"v.	c #D7D7D7",
"w.	c #D4D4D4",
"x.	c #D0D0D0",
"y.	c #CCCCCD",
"z.	c #C8C8C9",
"A.	c #C5C5C6",
"B.	c #C1C1C3",
"C.	c #BEBEBF",
"D.	c #1010C0",
"E.	c #6D70CF",
"F.	c #B1B2D5",
"G.	c #6A6FD0",
"H.	c #B5B7D7",
"I.	c #555492",
"J.	c #52519B",
"K.	c #3D3C98",
"L.	c #8583A5",
"M.	c #5B5B9C",
"N.	c #5B5B9D",
"O.	c #73739F",
"P.	c #7E7D9F",
"Q.	c #7D7C9E",
"R.	c #7C7B9D",
"S.	c #7B799C",
"T.	c #79789A",
"U.	c #787799",
"V.	c #777698",
"W.	c #767597",
"X.	c #3C3B97",
"                                                ",
"                                                ",
"    . + @ # $ % & * = - ; > , ' ) ! ~ { ] ] ]   ",
"    + ^ / ( _ : < [ } | 1 2 3 4 5 6 7 8     ]   ",
"    + ^ / ( 9 0 a b c d e f g h i j k l     ]   ",
"    + ^ / m n } o p 2 q r s 6 7 t u v l w x y   ",
"    + ^ / m z A d B f g C i D E F G H I / ^ +   ",
"    + ^ / J p K q 4 s L M t N v O P Q I / ^ +   ",
"    + ^ / R B 3 S 5 T D U F G V W X Y I / ^ +   ",
"    + ^ / R Z ` h  .j N ..+.@.#.$.%.&.*./ ^ +   ",
"    + ^ / 8 s 6 7 t u G V P =.-.;.>.,.*./ ^ +   ",
"    + ^ / 8 i j k ..'.H ).$.!.~.{.,.].*./ ^ +   ",
"    + ^ ^./.(._.:.<.[.}.|.1.2.3.4.4.4.5.^.^ +   ",
"    + ^ ^ 6.7.7.7.7.7.7.7.7.7.7.7.7.7.6.^ ^ +   ",
"    + ^ 8.9.9.9.9.9.9.9.9.9.9.9.9.9.9.9.8.^ +   ",
"    + ^ 0.a.b.c.d.e.f.g.h.i.j.k.l.m.n.o.0.^ +   ",
"    + ^ 0.p.q.r.s.t.u.v.w.x.y.z.A.B.C.D.0.^ +   ",
"    + ^ 0.p.q.E.^ ^ F.v.w.x.y.z.A.B.C.D.0.^ +   ",
"    + ^ 0.p.q.E.^ ^ F.v.w.x.y.z.A.B.C.D.0.^ +   ",
"    + ^ 0.p.q.E.^ ^ F.v.w.x.y.z.A.B.C.D.0.^ +   ",
"    + ^ 0.p.q.E.^ ^ F.v.w.x.y.z.A.B.C.D.0.^ +   ",
"    + ^ 0.p.q.E.^ G.H.v.w.x.y.z.A.B.C.D.0.^ +   ",
"    I.+ J.K.L.M.+ N.O.P.Q.R.S.T.U.V.W.X.J.+ I.  ",
"                                                "};
