/* XPM */
static char * runw24_xpm[] = {
"24 24 81 1",
" 	c None",
".	c #A87000",
"+	c #002F9C",
"@	c #2166A6",
"#	c #FEFEFF",
"$	c #00309C",
"%	c #FFFFFF",
"&	c #FCFDFE",
"*	c #F7FAFF",
"=	c #FBFDFE",
"-	c #002B8C",
";	c #F0F7FF",
">	c #F4F9FE",
",	c #FAFCFE",
"'	c #00267C",
")	c #EAF4FF",
"!	c #ECF5FE",
"~	c #F3F9FE",
"{	c #F8FBFE",
"]	c #00216D",
"^	c #E3F0FF",
"/	c #E4F1FE",
"(	c #EBF5FE",
"_	c #F1F8FE",
":	c #F7FBFE",
"<	c #001C5D",
"[	c #DDEDFF",
"}	c #DCEDFE",
"|	c #E3F1FE",
"1	c #EAF4FE",
"2	c #F0F7FE",
"3	c #F5FAFE",
"4	c #00174E",
"5	c #D6EAFF",
"6	c #D5EAFE",
"7	c #DBEDFE",
"8	c #E2F0FE",
"9	c #E8F3FE",
"0	c #EFF7FE",
"a	c #FFF3E5",
"b	c #00133E",
"c	c #CFE7FF",
"d	c #CDE6FE",
"e	c #D3E9FE",
"f	c #DAECFE",
"g	c #E0EFFE",
"h	c #E7F3FE",
"i	c #EDF6FE",
"j	c #FFE3BA",
"k	c #000E2E",
"l	c #C9E4FF",
"m	c #C5E2FE",
"n	c #CBE5FE",
"o	c #D2E8FE",
"p	c #D8EBFE",
"q	c #DFEFFE",
"r	c #E6F2FE",
"s	c #000000",
"t	c #00091F",
"u	c #C2E0FF",
"v	c #BDDEFE",
"w	c #C3E1FE",
"x	c #CAE4FE",
"y	c #D1E8FE",
"z	c #D7EBFE",
"A	c #DEEEFE",
"B	c #C99D4A",
"C	c #00040F",
"D	c #BCDDFF",
"E	c #B5DAFE",
"F	c #BCDDFE",
"G	c #C2E0FE",
"H	c #C9E4FE",
"I	c #CFE7FE",
"J	c #B5DAFF",
"K	c #AFD7FE",
"L	c #B4D9FE",
"M	c #BADCFE",
"N	c #C1E0FE",
"O	c #AFD7FF",
"P	c #B2D8FE",
"                        ",
"                        ",
"                        ",
"  ..         +@         ",
"  .#.        +#$        ",
"  .%&.       +*&$       ",
"  .%%=.      -;>=$      ",
"  .%%%,.     ')!~,$     ",
"  .%%%%{.    ]^/(_{$    ",
"  .%%%%%:.   <[}|12:$   ",
"  .%%%%%%3.  45678903$  ",
"  .%%%%%aaa. bcdefghi>$ ",
"  .%%%%aaaj. klmnopqr!s ",
"  .%%%aajj.  tuvwxyzAs  ",
"  .%%aajB.   CDEFGHIs   ",
"  .aaajB.    sJKLMNs    ",
"  .aajB.     sOKKPs     ",
"  .ajB.      sOKKs      ",
"  .jB.       sKKs       ",
"  .B.        sKs        ",
"  ..         ss         ",
"                        ",
"                        ",
"                        "};
