/* XPM */
static char * runw16_xpm[] = {
"16 16 63 1",
" 	c None",
".	c #A87000",
"+	c #C19949",
"@	c #4775B6",
"#	c #F4EEE2",
"$	c #C09849",
"%	c #A6B7DE",
"&	c #7E97CD",
"*	c #FFFFFF",
"=	c #FDFEFF",
"-	c #BF9849",
";	c #9FB2D7",
">	c #F4F9FE",
",	c #8AA1D2",
"'	c #F3EEE2",
")	c #99ACD0",
"!	c #E9F4FE",
"~	c #F2F8FE",
"{	c #7C96CD",
"]	c #FBFDFF",
"^	c #BE9749",
"/	c #92A6C7",
"(	c #DCEDFE",
"_	c #E5F2FE",
":	c #F0F7FE",
"<	c #88A0D2",
"[	c #FFFAF3",
"}	c #F3E6D1",
"|	c #C19541",
"1	c #8CA1C0",
"2	c #D2E8FE",
"3	c #DAECFE",
"4	c #EEF6FE",
"5	c #7A95CD",
"6	c #FFF8F1",
"7	c #FFEFDB",
"8	c #F5DDB8",
"9	c #C19135",
"0	c #849BB8",
"a	c #C4E2FE",
"b	c #CDE6FE",
"c	c #D8EBFE",
"d	c #E1F0FE",
"e	c #767B7F",
"f	c #E7C68D",
"g	c #7F96B1",
"h	c #BADCFE",
"i	c #C3E0FE",
"j	c #CEE6FE",
"k	c #77828D",
"l	c #FFF3E5",
"m	c #DDB774",
"n	c #B17D15",
"o	c #7791AA",
"p	c #B0D7FE",
"q	c #B6DAFE",
"r	c #61707F",
"s	c #758FAA",
"t	c #AFD7FE",
"u	c #62788D",
"v	c #758FA9",
"w	c #586C7F",
"x	c #273038",
"                ",
"                ",
" .+      @      ",
" .#$     %&     ",
" .*=-    ;>,    ",
" .**'-   )!~{   ",
" .***]^  /(_:<  ",
" .***[}| 123_45 ",
" .**6789 0abcde ",
" .*[7f9  ghijk  ",
" .l7mn   opqr   ",
" .7fn    stu    ",
" .mn     vw     ",
" .n      x      ",
"                ",
"                "};
