/* XPM */
static char * stop_xpm[] = {
"16 16 79 1",
" 	c None",
".	c #39A5FD",
"+	c #6EBCFE",
"@	c #6DB9F7",
"#	c #6BB5F0",
"$	c #68B0E8",
"%	c #64ABDF",
"&	c #61A6D7",
"*	c #5EA1CF",
"=	c #5A9CC7",
"-	c #2576A4",
";	c #6EBCFD",
">	c #FEFEFF",
",	c #FAFCFF",
"'	c #F6F9FF",
")	c #F0F7FF",
"!	c #EBF5FF",
"~	c #E7F2FF",
"{	c #E1F0FF",
"]	c #5591B2",
"^	c #6CB8F5",
"/	c #FDFEFF",
"(	c #F9FCFF",
"_	c #F4F9FF",
":	c #F0F6FF",
"<	c #EBF4FF",
"[	c #E6F2FF",
"}	c #E1EFFF",
"|	c #DCEDFF",
"1	c #518AA8",
"2	c #69B3EC",
"3	c #F9FBFF",
"4	c #EFF6FF",
"5	c #EAF4FF",
"6	c #E5F2FF",
"7	c #D6EAFF",
"8	c #4E86A0",
"9	c #66ADE3",
"0	c #E0EFFF",
"a	c #DBECFF",
"b	c #D7EBFF",
"c	c #D1E8FF",
"d	c #4B849E",
"e	c #62A7D9",
"f	c #EEF6FF",
"g	c #E9F3FF",
"h	c #E4F1FF",
"i	c #DFEFFF",
"j	c #DAECFF",
"k	c #D5E9FF",
"l	c #D0E7FF",
"m	c #CBE5FF",
"n	c #49829E",
"o	c #5EA2D0",
"p	c #E9F4FF",
"q	c #DFEEFF",
"r	c #C6E2FF",
"s	c #47829E",
"t	c #5B9CC7",
"u	c #DEEEFF",
"v	c #D5EAFF",
"w	c #CFE7FF",
"x	c #C1DFFF",
"y	c #45819E",
"z	c #5796BD",
"A	c #D9EBFF",
"B	c #D4E9FF",
"C	c #CAE4FF",
"D	c #C5E2FF",
"E	c #C0DFFF",
"F	c #BBDDFF",
"G	c #437F9E",
"H	c #226E96",
"I	c #528BA8",
"J	c #4C849E",
"K	c #4A839E",
"L	c #48829E",
"M	c #47819E",
"N	c #185E7A",
"                ",
"                ",
"                ",
"   .+@#$%&*=-   ",
"   ;>>,')!~{]   ",
"   ^/(_:<[}|1   ",
"   23_456}|78   ",
"   9_4560abcd   ",
"   efghijklmn   ",
"   ophqaklmrs   ",
"   thujvwmrxy   ",
"   zuABwCDEFG   ",
"   HI8JKLMyGN   ",
"                ",
"                ",
"                "};
