/* XPM */
static char * stop24_xpm[] = {
"24 24 95 2",
"  	c None",
". 	c #02309D",
"+ 	c #1540A4",
"@ 	c #1440A4",
"# 	c #143FA4",
"$ 	c #133FA4",
"% 	c #133FA3",
"& 	c #133B96",
"* 	c #02050C",
"= 	c #FEFEFF",
"- 	c #FCFDFF",
"; 	c #F9FBFF",
"> 	c #F5FAFF",
", 	c #F2F8FF",
"' 	c #EFF6FF",
") 	c #EBF5FF",
"! 	c #E8F3FF",
"~ 	c #E5F2FF",
"{ 	c #E2F0FF",
"] 	c #131415",
"^ 	c #FBFDFF",
"/ 	c #F8FBFF",
"( 	c #F5F9FF",
"_ 	c #E5F1FF",
": 	c #E1F0FF",
"< 	c #DEEEFF",
"[ 	c #F1F7FF",
"} 	c #EEF6FF",
"| 	c #E7F3FF",
"1 	c #E4F1FF",
"2 	c #E1EFFF",
"3 	c #DDEEFF",
"4 	c #DBECFF",
"5 	c #121415",
"6 	c #FDFDFF",
"7 	c #F4F9FF",
"8 	c #EBF4FF",
"9 	c #DDEDFF",
"0 	c #DAECFF",
"a 	c #D7EBFF",
"b 	c #FAFCFF",
"c 	c #F0F7FF",
"d 	c #EDF5FF",
"e 	c #EAF4FF",
"f 	c #E0EFFF",
"g 	c #D6EBFF",
"h 	c #D3E9FF",
"i 	c #121315",
"j 	c #F7FAFF",
"k 	c #E6F2FF",
"l 	c #E3F1FF",
"m 	c #D0E7FF",
"n 	c #111315",
"o 	c #F3F8FF",
"p 	c #E3F0FF",
"q 	c #DCEDFF",
"r 	c #D9EBFF",
"s 	c #D6EAFF",
"t 	c #CCE5FF",
"u 	c #EFF7FF",
"v 	c #E9F4FF",
"w 	c #DFEFFF",
"x 	c #D5EAFF",
"y 	c #D2E8FF",
"z 	c #CFE7FF",
"A 	c #C8E3FF",
"B 	c #ECF5FF",
"C 	c #CFE6FF",
"D 	c #CBE5FF",
"E 	c #C5E1FF",
"F 	c #101315",
"G 	c #E8F4FF",
"H 	c #DFEEFF",
"I 	c #DBEDFF",
"J 	c #D8EBFF",
"K 	c #D1E8FF",
"L 	c #CEE6FF",
"M 	c #C1E0FF",
"N 	c #CBE4FF",
"O 	c #C7E3FF",
"P 	c #C4E1FF",
"Q 	c #BDDEFF",
"R 	c #101215",
"S 	c #D7EAFF",
"T 	c #D4E9FF",
"U 	c #CAE4FF",
"V 	c #C0E0FF",
"W 	c #BADCFF",
"X 	c #0F1215",
"Y 	c #D8EAFF",
"Z 	c #CDE6FF",
"` 	c #C7E2FF",
" .	c #B6DAFF",
"..	c #02050E",
"+.	c #010202",
"                                                ",
"                                                ",
"                                                ",
"                                                ",
"                                                ",
"          . + + + + + + @ @ @ # $ % & *         ",
"          + = = = = - ; > , ' ) ! ~ { ]         ",
"          + = = = ^ / ( , ' ) ! _ : < ]         ",
"          + = = ^ / ( [ } ) | 1 2 3 4 5         ",
"          + 6 ^ / 7 [ } 8 | 1 2 9 0 a 5         ",
"          + b / 7 c d e | 1 f 9 0 g h i         ",
"          + j 7 c d e k l f 9 0 g h m n         ",
"          @ o c d e k p f q r s h m t n         ",
"          @ u d v k p w q r x y z t A n         ",
"          @ B v ~ { w q r x y C D A E F         ",
"          $ G ~ { H I J x K L D A E M F         ",
"          $ ~ { < 4 J x K L N O P M Q R         ",
"          $ { < 0 S T K L U O P V Q W X         ",
"          $ < 0 Y T m Z U ` P V Q W  .X         ",
"          ..] 5 5 i n n n n F F R X X +.        ",
"                                                ",
"                                                ",
"                                                ",
"                                                "};
