/* XPM */
static char * whitespace24_xpm[] = {
"24 24 89 1",
" 	c None",
".	c #D59D00",
"+	c #009900",
"@	c #FFFFFF",
"#	c #FFDEA4",
"$	c #CDFFCD",
"%	c #A46900",
"&	c #FFCE62",
"*	c #9CFF62",
"=	c #626594",
"-	c #62CA31",
";	c #FBFCFE",
">	c #FCFDFE",
",	c #EBF4FC",
"'	c #525083",
")	c #FDFDFE",
"!	c #F4F8FD",
"~	c #ECF4FD",
"{	c #E8F2FC",
"]	c #E4F0FC",
"^	c #D4E6FA",
"/	c #CFE4FA",
"(	c #CDCAFF",
"_	c #FEFEFE",
":	c #F9FCFE",
"<	c #EDF5FD",
"[	c #CCE2F9",
"}	c #FAFCFE",
"|	c #F6FAFE",
"1	c #F2F8FD",
"2	c #EEF5FD",
"3	c #EAF3FC",
"4	c #E6F1FC",
"5	c #E2EEFB",
"6	c #DEECFB",
"7	c #DAEAFB",
"8	c #D5E7FA",
"9	c #D1E5FA",
"0	c #CDE3F9",
"a	c #C9E0F9",
"b	c #F7FAFE",
"c	c #F3F8FD",
"d	c #E7F1FC",
"e	c #C6DFF9",
"f	c #F4F9FD",
"g	c #F0F6FD",
"h	c #E4EFFC",
"i	c #E0EDFB",
"j	c #DBEBFB",
"k	c #D7E8FA",
"l	c #D3E6FA",
"m	c #CFE4F9",
"n	c #CBE1F9",
"o	c #C7DFF9",
"p	c #C3DDF8",
"q	c #F1F7FD",
"r	c #E0EEFB",
"s	c #C0DBF8",
"t	c #E1EEFB",
"u	c #DDECFB",
"v	c #D9E9FB",
"w	c #CDE2F9",
"x	c #C5DEF8",
"y	c #C1DCF8",
"z	c #BCD9F8",
"A	c #EBF3FC",
"B	c #B9D7F7",
"C	c #E3EFFC",
"D	c #DFEDFB",
"E	c #C2DDF8",
"F	c #BEDAF8",
"G	c #BAD8F7",
"H	c #B6D6F7",
"I	c #B3D4F7",
"J	c #C8E0F9",
"K	c #C4DEF8",
"L	c #BCD9F7",
"M	c #B8D7F7",
"N	c #B4D4F7",
"O	c #B0D2F6",
"P	c #CEE3F9",
"Q	c #ADD0F6",
"R	c #DBEAFB",
"S	c #CAE1F9",
"T	c #C2DCF8",
"U	c #B6D5F7",
"V	c #B2D3F6",
"W	c #AED1F6",
"X	c #A9CFF6",
"                        ",
"                        ",
"            ...... ++   ",
"           .@@####.$$   ",
"          .#%##&&&&**   ",
"   ======.#%&%&&&..--   ",
"   =@@@;.#%&%&%...%--   ",
"   =@@>.#%,%&%&%%%'%%   ",
"   =@)!%%~{]%&%^/('     ",
"   =_:==<====%==[('     ",
"   =}|1234567890a('     ",
"   =bc==d=======e('     ",
"   =fg~{hijklmnop('     ",
"   =q<==r=======s('     ",
"   =235tuv89waxyz('     ",
"   =A4==7=======B('     ",
"   =dCDjklmnoEFGH('     ",
"   =]i==^=======I('     ",
"   =tuv89wJKsLMNO('     ",
"   =67==P=======Q('     ",
"   =RklPSeTFGUVWX('     ",
"   =(((((((((((((('     ",
"   ''''''''''''''''     ",
"                        "};
