/* XPM */
static char * whitespace_xpm[] = {
"16 16 101 2",
"  	c None",
". 	c #D59D00",
"+ 	c #009900",
"@ 	c #E1B02F",
"# 	c #EBDABC",
"$ 	c #FFE5B8",
"% 	c #FFD98E",
"& 	c #D6C94E",
"* 	c #BDFFA9",
"= 	c #626594",
"- 	c #D2A349",
"; 	c #D7A33E",
"> 	c #EBBD62",
", 	c #FFCE62",
"' 	c #ECB836",
") 	c #BEBD2C",
"! 	c #75DC41",
"~ 	c #9698B8",
"{ 	c #FFFFFF",
"] 	c #F9F3E2",
"^ 	c #E7C15D",
"/ 	c #D4AC65",
"( 	c #D4A548",
"_ 	c #CC962C",
": 	c #C58C00",
"< 	c #837928",
"[ 	c #78AA21",
"} 	c #FEFEFF",
"| 	c #E1CFA9",
"1 	c #BE8924",
"2 	c #DBD5C4",
"3 	c #D7D3C4",
"4 	c #C3BCA7",
"5 	c #C0AFA9",
"6 	c #5E5470",
"7 	c #9698B7",
"8 	c #FAFCFE",
"9 	c #9296B7",
"0 	c #CED5E5",
"a 	c #8E93B7",
"b 	c #8C92B6",
"c 	c #989295",
"d 	c #969195",
"e 	c #9DAACC",
"f 	c #CCD2FD",
"g 	c #525083",
"h 	c #9497B7",
"i 	c #F5F9FE",
"j 	c #CBD3E5",
"k 	c #8991B6",
"l 	c #8790B6",
"m 	c #9BAACC",
"n 	c #CBD1FD",
"o 	c #F0F7FD",
"p 	c #BDC4DA",
"q 	c #D6E0F0",
"r 	c #B5BFD9",
"s 	c #B1BDD8",
"t 	c #ACBBD8",
"u 	c #A9B8D7",
"v 	c #AFC3E2",
"w 	c #C9D0FD",
"x 	c #9195B7",
"y 	c #ECF4FD",
"z 	c #B7C0D9",
"A 	c #D1DEF0",
"B 	c #B0BDD8",
"C 	c #ADBBD8",
"D 	c #A8B8D7",
"E 	c #A5B6D7",
"F 	c #ABC1E2",
"G 	c #C8CFFD",
"H 	c #8F94B7",
"I 	c #E7F1FC",
"J 	c #8B92B6",
"K 	c #BFCCE4",
"L 	c #858FB6",
"M 	c #838DB6",
"N 	c #818CB5",
"O 	c #92A4CB",
"P 	c #C6CEFC",
"Q 	c #E2EFFC",
"R 	c #BCCAE3",
"S 	c #91A4CB",
"T 	c #C5CEFC",
"U 	c #DDECFB",
"V 	c #C5D7EE",
"W 	c #A4B6D7",
"X 	c #A0B3D6",
"Y 	c #9CB1D6",
"Z 	c #A0BAE1",
"` 	c #C3CCFC",
" .	c #D9E9FB",
"..	c #ACBAD8",
"+.	c #C0D4EE",
"@.	c #A0B3D7",
"#.	c #98AFD6",
"$.	c #9CB8E0",
"%.	c #C1CCFC",
"&.	c #7474A6",
"*.	c #A4A1D6",
"                                ",
"                . . . .   +     ",
"              @ # $ % % & *     ",
"    = = = = @ - ; > , ' ) !     ",
"    ~ { ] ^ / ( _ _ : : < [     ",
"    ~ } | 1 2 3 _ _ 4 5 6       ",
"    7 8 9 0 a b c d e f g       ",
"    h i 9 j a b k l m n g       ",
"    9 o p q r s t u v w g       ",
"    x y z A B C D E F G g       ",
"    H I J K l L M N O P g       ",
"    a Q J R l L M N S T g       ",
"    b U B V D W X Y Z ` g       ",
"    J  ...+.W @.Y #.$.%.g       ",
"    &.*.*.*.*.*.*.*.*.*.g       ",
"                                "};
